<svg width="42" height="42" viewBox="0 0 42 42" fill="none" xmlns="http://www.w3.org/2000/svg">
<mask id="mask0_4038_27639" style="mask-type:luminance" maskUnits="userSpaceOnUse" x="0" y="0" width="42" height="42">
<path d="M41.9122 0.121094H0.703125V41.3402H41.9122V0.121094Z" fill="white"/>
</mask>
<g mask="url(#mask0_4038_27639)">
<path d="M31.5778 19.5998C31.3492 19.3077 31.1478 18.8345 31.0324 18.2821C30.8264 17.3017 30.849 16.5907 31.4217 16.4979C31.9921 16.4051 32.2659 17.0005 32.4742 17.9809C32.61 18.6398 32.5851 19.2466 32.4312 19.5998C32.1483 19.5636 31.8608 19.5636 31.5778 19.5998ZM26.668 20.3741C26.2583 20.1953 25.7264 19.996 25.0835 20.0345C24.1758 20.0911 23.3881 20.4896 23.1617 20.4647C23.0644 20.4511 23.0259 20.4104 23.0124 20.3538C22.9784 20.1862 23.2365 19.9055 23.5104 19.7062C24.3231 19.1107 25.3868 18.9817 26.3149 19.3688C26.7563 19.5568 27.1729 19.8896 27.3743 20.2224C27.4716 20.3809 27.4898 20.5055 27.4264 20.5711C27.3291 20.673 27.0778 20.5553 26.668 20.3741ZM25.8441 20.8451C26.5775 20.759 27.1186 21.1009 27.2431 21.3047C27.2951 21.3907 27.2747 21.4496 27.2566 21.4768C27.2 21.5696 27.071 21.5515 26.8062 21.5198C26.2267 21.4315 25.6358 21.4926 25.0881 21.6987C25.0881 21.6987 24.8165 21.8096 24.6965 21.8096L24.6082 21.7756L24.5675 21.676C24.5675 21.5674 24.6671 21.4111 24.8278 21.2707C25.0179 21.1077 25.3121 20.9311 25.8441 20.8451ZM29.9209 22.5726C29.5587 22.396 29.3709 22.0383 29.4999 21.7711C29.6312 21.5085 30.0296 21.4383 30.3895 21.6172C30.7517 21.7938 30.9418 22.1515 30.8105 22.4187C30.6814 22.6813 30.283 22.7515 29.9209 22.5726ZM32.2479 20.5371C32.5421 20.5439 32.773 20.8745 32.7685 21.2775C32.7617 21.6828 32.515 22.0043 32.223 21.9998C31.9287 21.9953 31.6978 21.6624 31.7046 21.2594C31.7092 20.8541 31.9536 20.5304 32.2479 20.5371ZM12.4957 27.8232C12.5206 27.8549 12.5658 27.9228 12.5138 28.036C12.4323 28.2307 12.1018 28.4979 11.6309 28.4798C11.1488 28.4413 10.61 28.0881 10.5353 27.2096C10.4991 26.7772 10.6621 26.2496 10.764 25.9734C10.9587 25.439 10.7844 24.8798 10.3271 24.5787C10.0646 24.4066 9.74312 24.3477 9.43754 24.4111C9.12969 24.4768 8.86268 24.6602 8.69065 24.9228C8.55031 25.1402 8.46651 25.4119 8.42124 25.559L8.39181 25.6473C8.28768 25.9258 8.12472 26.0073 8.01381 25.9915C7.96174 25.9847 7.88928 25.9485 7.84401 25.824C7.71725 25.4753 7.81911 24.4972 8.46877 23.7794C8.90111 23.3153 9.52806 23.0889 10.1573 23.1704C10.8115 23.2519 11.3548 23.6504 11.6876 24.2866C12.1313 25.1311 11.7374 26.0187 11.4997 26.5485L11.4319 26.7047C11.2847 27.0579 11.2757 27.3658 11.4092 27.5719C11.5246 27.7349 11.7125 27.83 11.9117 27.8255C12.0045 27.8255 12.0972 27.8119 12.1855 27.787C12.3032 27.7598 12.4233 27.7326 12.4957 27.8232ZM39.668 26.2156C40.2565 26.2156 41.1822 26.8972 41.1822 28.5387C41.1822 30.1689 40.5078 32.0187 40.347 32.4307C37.9091 38.2813 32.0962 41.5371 25.1696 41.3311C18.7138 41.1387 13.2065 37.7243 10.798 32.1613C9.34023 32.1613 7.83723 31.5183 6.69411 30.5039C5.49214 29.4353 4.7496 28.0564 4.60473 26.6119C4.48703 25.5704 4.61609 24.5153 4.98052 23.5326L3.62698 22.387C-2.56396 17.1455 16.8056 -4.42963 23.0034 0.986218C23.7096 1.67678 24.4136 2.36735 25.1153 3.06018L26.2652 2.57112C31.7001 0.313758 36.1096 1.40281 36.1141 5.00281C36.1186 6.873 34.9279 9.05338 33.022 11.0322C33.7146 11.6753 34.2669 12.6783 34.5861 13.8262C34.8509 14.673 34.8985 15.5356 34.9211 16.0858C34.9551 16.8466 34.9913 18.624 34.9959 18.6557L35.7586 18.8685C37.2187 19.2783 38.2577 19.8239 38.7647 20.3606C39.2717 20.8926 39.5231 21.4088 39.6159 22.0156C39.6996 22.5024 39.6906 23.3673 39.0454 24.3341L39.3714 25.2104C39.5343 25.7243 39.6499 26.1522 39.668 26.2156ZM11.3322 30.5968C13.5936 30.2096 14.1867 27.7462 13.8132 25.3281C13.3944 22.5953 11.5495 21.633 10.2977 21.5651C9.98307 21.5492 9.66622 21.5719 9.35837 21.633C7.12646 22.0836 5.86333 23.9877 6.11232 26.4602C6.33868 28.6994 8.59783 30.5855 10.6894 30.6421C10.9044 30.6466 11.1195 30.6307 11.3322 30.5968ZM8.99612 20.1545C10.7663 15.393 13.7203 11.0073 17.6318 7.98922C20.5337 5.56205 23.6643 3.8232 23.6643 3.8232C23.6643 3.8232 21.978 1.8647 21.4709 1.7198C18.3358 0.870741 11.5745 5.54621 7.25324 11.7228C5.50574 14.2224 3.00447 18.6466 4.19965 20.9221C4.34905 21.2051 5.18196 21.9296 5.63015 22.3032C6.3794 21.2141 7.60401 20.4239 8.99612 20.1545ZM30.9508 29.6707C30.9508 29.6707 28.4359 30.8458 24.4384 29.6073C24.5494 30.547 25.4616 30.9658 25.8985 31.1356C26.4486 31.3507 27.0484 31.4504 27.0484 31.4504C32.0034 32.3039 36.6347 29.4647 37.6782 28.7515C37.7574 28.6972 37.8073 28.7492 37.7462 28.8443L37.6442 28.9892C36.3676 30.6398 32.9359 32.5485 28.4721 32.5485C26.5277 32.5485 24.5788 31.8624 23.8658 30.8051C22.7589 29.1658 23.8114 26.7772 25.6585 27.024L26.4666 27.1168C28.7755 27.3726 32.1166 27.0489 34.8714 25.7673C37.393 24.5968 38.3437 23.3062 38.1988 22.2624C38.1603 21.9817 38.0359 21.6851 37.7643 21.4088C37.3116 20.9651 36.594 20.6187 35.383 20.2768C34.9846 20.1658 34.7106 20.0934 34.4186 19.996C33.898 19.8239 33.6422 19.6858 33.5833 18.7077C33.5584 18.2775 33.4838 16.7877 33.4566 16.1696C33.4091 15.0874 33.2801 13.6089 32.3656 12.9998C32.1324 12.8458 31.8608 12.7598 31.5824 12.7485C31.3085 12.7349 31.1726 12.7847 31.1183 12.7938C30.5954 12.8821 30.2876 13.1628 29.9028 13.4821C28.7619 14.4353 27.7976 14.5915 26.7269 14.5462C26.084 14.519 25.405 14.4194 24.6285 14.3719L24.1736 14.347C22.3785 14.2541 20.4523 15.8073 20.1331 18.0126C19.6872 21.0851 21.9055 22.6723 22.5461 23.6028C22.6276 23.7138 22.7226 23.87 22.7226 24.0194C22.7226 24.196 22.6072 24.3387 22.4963 24.4587C20.6628 26.347 20.0787 29.3447 20.7669 31.8421C20.8506 32.15 20.9615 32.4488 21.0928 32.7387C22.7112 36.5288 27.7365 38.2949 32.644 36.6896C33.2846 36.4791 33.9093 36.2141 34.5069 35.8994C35.5799 35.3673 36.5486 34.6428 37.3613 33.762C38.6628 32.399 39.437 30.916 39.738 29.0911C39.8852 28.113 39.6702 27.7372 39.3759 27.5538C39.0635 27.3613 38.6901 27.4292 38.6901 27.4292C38.6901 27.4292 38.518 26.2609 38.0381 25.199C36.6053 26.3289 34.765 27.1236 33.3638 27.5289C31.3333 28.1017 29.2214 28.3304 27.114 28.2058C25.7581 28.0949 24.8618 27.6987 24.5245 28.7968C27.6211 29.9334 30.8965 29.4466 30.8965 29.4466C30.9282 29.4443 30.9576 29.4534 30.9825 29.4715C31.0051 29.4919 31.021 29.519 31.0232 29.5507C31.0278 29.6005 30.9984 29.6504 30.9508 29.6707ZM16.9708 11.6956C16.9187 11.7613 16.9979 11.8474 17.0659 11.7975C18.3923 10.8307 20.2101 9.93188 22.5914 9.34999C25.2602 8.69792 27.8293 8.97187 29.3979 9.33414C29.4772 9.34998 29.5247 9.21414 29.4568 9.17564C28.4201 8.59149 26.8265 8.19754 25.6993 8.18848C25.6744 8.18622 25.6495 8.17264 25.6382 8.14999C25.6292 8.12509 25.6313 8.09791 25.6472 8.07753C25.8486 7.81262 26.0863 7.57263 26.3511 7.36886C26.4077 7.32584 26.3738 7.23754 26.3059 7.24207C24.6965 7.33943 22.8652 8.11149 21.8104 8.82923C21.7877 8.84508 21.7561 8.84508 21.7334 8.82923C21.7108 8.81338 21.6995 8.78621 21.7063 8.75904C21.7856 8.36282 22.0458 7.8398 22.1816 7.59527C22.211 7.53867 22.15 7.47527 22.0911 7.5047C20.3979 8.37187 18.5078 9.91828 16.9708 11.6956Z" fill="black"/>
</g>
</svg>
