<svg width="42" height="42" viewBox="0 0 42 42" fill="none" xmlns="http://www.w3.org/2000/svg">
<mask id="mask0_4038_27596" style="mask-type:luminance" maskUnits="userSpaceOnUse" x="0" y="0" width="42" height="42">
<path d="M41.9356 0.121094H0.726562V41.3402H41.9356V0.121094Z" fill="white"/>
</mask>
<g mask="url(#mask0_4038_27596)">
<path d="M38.2072 0.121094H4.45472C2.39484 0.121094 0.726562 1.78978 0.726562 3.85016V37.6109C0.726562 39.6713 2.39484 41.3399 4.45472 41.3399H38.2072C40.2671 41.3399 41.9354 39.6713 41.9354 37.6109V3.85016C41.9354 1.78978 40.2671 0.121094 38.2072 0.121094ZM13.4774 35.7113C13.4774 36.3113 12.993 36.7981 12.3931 36.7981H7.77544C7.17559 36.7981 6.69117 36.3113 6.69117 35.7113V16.3505C6.69117 15.7505 7.17559 15.266 7.77544 15.266H12.3931C12.993 15.266 13.4774 15.7505 13.4774 16.3505V35.7113ZM10.0843 13.4388C7.66223 13.4388 5.69746 11.4758 5.69746 9.05091C5.69746 6.62826 7.66223 4.66299 10.0843 4.66299C12.5063 4.66299 14.4711 6.62826 14.4711 9.05091C14.4711 11.4758 12.5063 13.4388 10.0843 13.4388ZM37.6096 35.7996C37.6096 36.3498 37.1637 36.7981 36.6137 36.7981H31.6586C31.1063 36.7981 30.6604 36.3498 30.6604 35.7996V26.7181C30.6604 25.3619 31.0566 20.7815 27.1202 20.7815C24.0666 20.7815 23.4463 23.9173 23.3218 25.3256V35.7996C23.3218 36.3498 22.8759 36.7981 22.3258 36.7981H17.5338C16.9815 36.7981 16.5356 36.3498 16.5356 35.7996V16.2622C16.5356 15.712 16.9815 15.266 17.5338 15.266H22.3258C22.8759 15.266 23.3218 15.712 23.3218 16.2622V17.9513C24.4559 16.2509 26.1378 14.94 29.721 14.94C37.655 14.94 37.6096 22.3551 37.6096 26.4283V35.7996Z" fill="#0077B7"/>
</g>
</svg>
