<svg width="42" height="42" viewBox="0 0 42 42" fill="none" xmlns="http://www.w3.org/2000/svg">
<mask id="mask0_4038_27544" style="mask-type:luminance" maskUnits="userSpaceOnUse" x="0" y="0" width="42" height="42">
<path d="M41.6231 0.121094H0.414062V41.3402H41.6231V0.121094Z" fill="white"/>
</mask>
<g mask="url(#mask0_4038_27544)">
<path d="M18.8128 3.923L3.44747 10.283C2.59409 10.6362 2.60314 11.8498 3.46105 12.1917L18.8898 18.3117C20.2456 18.8483 21.7554 18.8483 23.1113 18.3117L38.5378 12.1917C39.398 11.8498 39.407 10.6362 38.5513 10.283L23.1883 3.923C21.7871 3.34338 20.2162 3.34338 18.8128 3.923Z" fill="#FFCC00"/>
<path d="M22.3672 21.6495V36.937C22.3672 37.1046 22.4079 37.2699 22.4871 37.4193C22.5664 37.5665 22.6796 37.6933 22.8177 37.7884C22.958 37.8812 23.1164 37.94 23.2839 37.9604C23.4514 37.9785 23.619 37.9559 23.7752 37.8948L40.9672 31.2178C41.1596 31.1431 41.3248 31.0118 41.4403 30.8397C41.5557 30.6699 41.6168 30.4684 41.6168 30.2623V14.9748C41.6168 14.8072 41.5761 14.6419 41.4968 14.4925C41.4199 14.3453 41.3044 14.2186 41.1664 14.1235C41.0283 14.0284 40.8676 13.9695 40.7001 13.9514C40.5348 13.9333 40.365 13.9559 40.2088 14.017L23.0168 20.6917C22.8244 20.7687 22.6614 20.9001 22.546 21.0721C22.4283 21.242 22.3672 21.4435 22.3672 21.6495Z" fill="#31C2F2"/>
<path d="M18.3576 22.4397L12.7394 25.1544L1.96915 30.3167C1.28554 30.6473 0.414062 30.1492 0.414062 29.3907V15.0405C0.414062 14.7665 0.554415 14.531 0.742294 14.3522C0.82152 14.2752 0.907531 14.2095 1.00487 14.1575C1.26065 14.0012 1.62962 13.9605 1.942 14.085L18.2739 20.5559C19.1114 20.8865 19.1748 22.0503 18.3599 22.442" fill="#ED3049"/>
<path d="M18.3497 22.442L13.2475 24.9054L0.734375 14.3522C0.813601 14.2752 0.899646 14.2095 0.996981 14.1575C1.25277 14.0012 1.62172 13.9605 1.93183 14.085L18.266 20.5559C19.1012 20.8865 19.1669 22.0503 18.3497 22.442Z" fill="#C62842"/>
</g>
</svg>
