<svg width="51" height="36" viewBox="0 0 51 36" fill="none" xmlns="http://www.w3.org/2000/svg">
<mask id="mask0_4038_27431" style="mask-type:luminance" maskUnits="userSpaceOnUse" x="0" y="0" width="51" height="36">
<path d="M50.326 0.722656H0.875V35.3467H50.326V0.722656Z" fill="white"/>
</mask>
<g mask="url(#mask0_4038_27431)">
<path d="M21.4534 4.50249C23.047 2.84038 25.2676 1.80951 27.7236 1.80951C30.9877 1.80951 33.8353 3.63012 35.3519 6.33306C36.6716 5.74393 38.1293 5.41631 39.664 5.41631C45.5516 5.41631 50.3256 10.2321 50.3256 16.1726C50.3256 22.114 45.5516 26.9298 39.664 26.9298C38.96 26.9303 38.2561 26.8601 37.5657 26.7206C36.2301 29.1034 33.6836 30.7134 30.7636 30.7134C29.539 30.7134 28.3823 30.4311 27.3523 29.9287C25.9987 33.1141 22.8455 35.3477 19.1694 35.3477C15.3394 35.3477 12.0776 32.9246 10.8235 29.5263C10.278 29.6425 9.70985 29.7032 9.12811 29.7032C4.56922 29.7032 0.875 25.9689 0.875 21.3614C0.875 18.274 2.53421 15.578 5.00154 14.1358C4.49449 12.9668 4.21154 11.6767 4.21154 10.3202C4.21154 5.02165 8.5124 0.726562 13.816 0.726562C16.9307 0.726562 19.6991 2.20755 21.4534 4.50249Z" fill="#00A1E0"/>
<path d="M8.03492 18.6817C8.00323 18.7628 8.04624 18.7798 8.05529 18.7938C8.1481 18.8615 8.24317 18.9102 8.33824 18.9643C8.84303 19.2321 9.31838 19.3103 9.81637 19.3103C10.8305 19.3103 11.462 18.7705 11.462 17.9017V17.885C11.462 17.0817 10.7512 16.79 10.0835 16.5792L9.99743 16.5512C9.49265 16.3877 9.06033 16.2466 9.06033 15.9156V15.898C9.06033 15.6147 9.31383 15.4062 9.70543 15.4062C10.1423 15.4062 10.6607 15.5513 10.9957 15.7359C10.9957 15.7359 11.093 15.7993 11.1292 15.7042C11.1496 15.6534 11.3171 15.1983 11.3352 15.149C11.3556 15.0953 11.3216 15.0559 11.2854 15.0349C10.9051 14.803 10.3777 14.6445 9.83219 14.6445L9.73262 14.6452C8.80228 14.6452 8.15487 15.206 8.15487 16.01V16.0268C8.15487 16.8745 8.87017 17.1494 9.54019 17.3409L9.64886 17.374C10.1355 17.5241 10.5566 17.6531 10.5566 17.9968V18.0138C10.5566 18.3281 10.2827 18.562 9.84352 18.562C9.67149 18.562 9.12596 18.5586 8.53516 18.1857C8.46498 18.1442 8.42196 18.1139 8.36764 18.0808C8.33821 18.0625 8.2658 18.0308 8.23411 18.1266L8.03492 18.6817ZM22.8841 18.6817C22.8547 18.7628 22.8954 18.7798 22.9067 18.7938C22.9995 18.8615 23.0924 18.9102 23.1874 18.9643C23.6922 19.2321 24.1698 19.3103 24.6678 19.3103C25.6819 19.3103 26.3112 18.7705 26.3112 17.9017V17.885C26.3112 17.0817 25.6004 16.79 24.9327 16.5792L24.8467 16.5512C24.3441 16.3877 23.9095 16.2466 23.9095 15.9156V15.898C23.9095 15.6147 24.163 15.4062 24.5569 15.4062C24.9938 15.4062 25.5122 15.5513 25.8449 15.7359C25.8449 15.7359 25.9445 15.7993 25.9785 15.7042C25.9988 15.6534 26.1686 15.1983 26.1867 15.149C26.2048 15.0953 26.1709 15.0559 26.1369 15.0349C25.7544 14.803 25.2292 14.6445 24.6837 14.6445L24.5818 14.6452C23.6537 14.6452 23.0041 15.206 23.0041 16.01V16.0268C23.0041 16.8745 23.7194 17.1494 24.3894 17.3409L24.4981 17.374C24.987 17.5241 25.408 17.6531 25.408 17.9968V18.0138C25.408 18.3281 25.1341 18.562 24.6927 18.562C24.5207 18.562 23.9752 18.5586 23.3866 18.1857C23.3142 18.1442 23.2712 18.1152 23.2191 18.0808C23.201 18.0688 23.115 18.0356 23.0856 18.1266L22.8841 18.6817ZM33.0228 16.98C33.0228 17.4711 32.93 17.858 32.7511 18.1313C32.5723 18.4019 32.3029 18.5337 31.9272 18.5337C31.5492 18.5337 31.2821 18.4026 31.1055 18.1313C30.929 17.8587 30.8384 17.4711 30.8384 16.98C30.8384 16.4898 30.929 16.1036 31.1055 15.833C31.2821 15.5654 31.5492 15.4349 31.9272 15.4349C32.3029 15.4349 32.5723 15.5654 32.7511 15.833C32.93 16.1036 33.0228 16.4896 33.0228 16.98ZM33.8694 16.0698C33.7856 15.7886 33.6566 15.5405 33.4845 15.3342C33.3102 15.127 33.093 14.9606 32.8326 14.8395C32.5746 14.719 32.269 14.6577 31.9272 14.6577C31.5831 14.6577 31.2775 14.719 31.0195 14.8395C30.7592 14.9606 30.5419 15.127 30.3676 15.3342C30.1955 15.5414 30.0665 15.7893 29.9828 16.0698C29.899 16.3494 29.8582 16.6553 29.8582 16.98C29.8582 17.3049 29.899 17.6115 29.9828 17.8904C30.0665 18.1709 30.1955 18.4189 30.3676 18.626C30.5419 18.8332 30.7592 18.9987 31.0195 19.1165C31.2775 19.2342 31.5831 19.294 31.9272 19.294C32.269 19.294 32.5746 19.2342 32.8326 19.1165C33.093 18.9987 33.3102 18.8332 33.4845 18.626C33.6566 18.4195 33.7856 18.1716 33.8694 17.8904C33.9531 17.6108 33.9939 17.3042 33.9939 16.98C33.9939 16.656 33.9531 16.3494 33.8694 16.0698ZM40.8231 18.4026C40.7937 18.3201 40.7145 18.3512 40.7145 18.3512C40.5922 18.3983 40.461 18.442 40.3206 18.4639C40.1803 18.4857 40.0241 18.497 39.8566 18.497C39.4469 18.497 39.1209 18.3752 38.8877 18.134C38.6546 17.8931 38.5233 17.5035 38.5256 16.9764C38.5256 16.4966 38.641 16.1359 38.8493 15.8611C39.0552 15.5878 39.3699 15.4474 39.7887 15.4474C40.1395 15.4474 40.4043 15.4877 40.6828 15.5758C40.6828 15.5758 40.7507 15.6045 40.7824 15.5171C40.8571 15.3115 40.9114 15.1642 40.9906 14.938C41.0133 14.8739 40.9567 14.8465 40.9386 14.8386C40.8277 14.7958 40.5696 14.726 40.3727 14.6964C40.1893 14.6683 39.9765 14.6534 39.7366 14.6534C39.3812 14.6534 39.0643 14.714 38.7927 14.8352C38.5233 14.9556 38.2924 15.1218 38.1114 15.3292C37.9303 15.5364 37.7922 15.7843 37.6994 16.0646C37.6088 16.3445 37.5613 16.6517 37.5613 16.9764C37.5613 17.6789 37.7514 18.2468 38.1249 18.6625C38.5007 19.0798 39.0621 19.2917 39.7977 19.2917C40.2301 19.2917 40.676 19.2036 40.9951 19.0775C40.9951 19.0775 41.0563 19.0481 41.0314 18.9768L40.8231 18.4026ZM42.3035 16.5095C42.3443 16.2369 42.419 16.01 42.5367 15.8332C42.711 15.5647 42.9781 15.4175 43.3538 15.4175C43.7319 15.4175 43.9808 15.5654 44.1574 15.8332C44.2774 16.01 44.3272 16.2469 44.3475 16.5095H42.3035ZM45.1557 15.91C45.0832 15.6387 44.9044 15.3645 44.7867 15.2391C44.6033 15.0405 44.4223 14.9017 44.2434 14.8241C44.0103 14.724 43.7296 14.6579 43.4217 14.6579C43.0641 14.6579 42.7404 14.7179 42.4756 14.8417C42.213 14.9658 41.9911 15.1349 41.8168 15.3455C41.6426 15.5556 41.5113 15.8056 41.4275 16.0897C41.3438 16.3723 41.303 16.6802 41.303 17.0049C41.303 17.3355 41.346 17.6434 41.432 17.9201C41.5203 18.1993 41.6584 18.4451 41.8485 18.6487C42.0364 18.8538 42.2786 19.0143 42.5684 19.1264C42.8558 19.2378 43.2067 19.2956 43.6096 19.2949C44.4381 19.2919 44.8727 19.1074 45.0515 19.008C45.0855 18.9903 45.1149 18.9596 45.0764 18.8706L44.8885 18.3457C44.8614 18.2674 44.7822 18.2964 44.7822 18.2964C44.5762 18.3725 44.2842 18.5092 43.6051 18.5078C43.1614 18.5072 42.8309 18.3761 42.6249 18.171C42.4122 17.9611 42.308 17.6525 42.2899 17.2168L45.1579 17.2198C45.1579 17.2198 45.2326 17.2184 45.2394 17.1451C45.2417 17.1143 45.339 16.5562 45.1557 15.91ZM19.3484 16.5095C19.3891 16.2369 19.4638 16.01 19.5815 15.8332C19.7558 15.5647 20.0229 15.4175 20.4009 15.4175C20.7767 15.4175 21.0257 15.5654 21.2045 15.8332C21.3222 16.01 21.372 16.2469 21.3924 16.5095H19.3484ZM22.1982 15.91C22.1281 15.6387 21.9493 15.3645 21.8316 15.2391C21.6482 15.0405 21.4671 14.9017 21.2883 14.8241C21.0551 14.724 20.7744 14.6579 20.4666 14.6579C20.1112 14.6579 19.7852 14.7179 19.5204 14.8417C19.2578 14.9658 19.036 15.1349 18.8617 15.3455C18.6874 15.5556 18.5561 15.8056 18.4724 16.0897C18.3909 16.3723 18.3479 16.6802 18.3479 17.0049C18.3479 17.3355 18.3909 17.6434 18.4769 17.9201C18.5652 18.1993 18.7055 18.4451 18.8934 18.6487C19.0813 18.8538 19.3235 19.0143 19.6132 19.1264C19.9029 19.2378 20.2516 19.2956 20.6545 19.2949C21.4829 19.2919 21.9176 19.1074 22.0986 19.008C22.1303 18.9903 22.1598 18.9596 22.1213 18.8706L21.9357 18.3457C21.9062 18.2674 21.827 18.2964 21.827 18.2964C21.621 18.3725 21.3313 18.5092 20.6499 18.5078C20.2063 18.5072 19.8758 18.3761 19.6698 18.171C19.457 17.9611 19.3529 17.6525 19.3348 17.2168L22.2028 17.2198C22.2028 17.2198 22.2775 17.2184 22.2843 17.1451C22.2888 17.1143 22.3838 16.5562 22.1982 15.91ZM13.1529 18.3869C13.042 18.2973 13.0261 18.2749 12.9876 18.2171C12.9311 18.1291 12.9016 18.0036 12.9016 17.8442C12.9016 17.592 12.9854 17.4111 13.1574 17.2891C13.1574 17.2891 13.4042 17.0742 13.9904 17.0819C14.4001 17.0876 14.7669 17.1482 14.7669 17.1482V18.4517C14.7669 18.4517 14.4047 18.5298 13.9927 18.5545C13.4109 18.5898 13.1529 18.3869 13.1529 18.3869ZM14.2938 16.3723C14.1783 16.3639 14.0267 16.359 13.8456 16.359C13.6011 16.359 13.3634 16.39 13.1416 16.45C12.9175 16.5097 12.716 16.6035 12.5417 16.7275C12.3697 16.8509 12.2271 17.0128 12.1252 17.2003C12.0256 17.3891 11.9736 17.6117 11.9736 17.8612C11.9736 18.1148 12.0166 18.3353 12.1048 18.5158C12.1909 18.6969 12.3176 18.8477 12.4784 18.9639C12.6368 19.0802 12.8337 19.1654 13.0624 19.2168C13.2864 19.2684 13.5423 19.2944 13.8207 19.2944C14.1149 19.2944 14.4069 19.2704 14.6921 19.2217C14.9728 19.1737 15.3169 19.104 15.4142 19.0823C15.4799 19.0662 15.5478 19.049 15.6134 19.0309C15.6859 19.0132 15.6791 18.9371 15.6791 18.9371V16.3152C15.6791 15.7404 15.5252 15.314 15.2218 15.0498C14.9231 14.7863 14.4794 14.6531 13.9067 14.6531C13.6916 14.6531 13.3453 14.6828 13.1393 14.7242C13.1393 14.7242 12.5123 14.8456 12.2543 15.0471C12.2543 15.0471 12.1977 15.0822 12.2294 15.1612L12.4308 15.7066C12.458 15.7771 12.5259 15.7531 12.5259 15.7531C12.5259 15.7531 12.5485 15.7447 12.5734 15.7297C13.1235 15.4297 13.8229 15.4388 13.8229 15.4388C14.1308 15.4388 14.3707 15.5008 14.5314 15.624C14.6876 15.7438 14.7669 15.9249 14.7669 16.3069V16.428C14.5201 16.3929 14.2938 16.3723 14.2938 16.3723ZM37.4119 14.8952C37.4345 14.8302 37.387 14.7994 37.3689 14.7924C37.3214 14.7734 37.0769 14.7217 36.889 14.7097C36.5291 14.688 36.3276 14.7487 36.1488 14.8288C35.9722 14.9092 35.7753 15.039 35.6644 15.1861V14.8374C35.6644 14.7888 35.6304 14.75 35.5829 14.75H34.8472C34.7997 14.75 34.7657 14.7888 34.7657 14.8374V19.1135C34.7657 19.1615 34.8042 19.2009 34.8518 19.2009H35.6055C35.6282 19.2009 35.6508 19.1916 35.6667 19.1751C35.6825 19.1588 35.6916 19.1366 35.6916 19.1135V16.9773C35.6916 16.6904 35.7232 16.4045 35.7866 16.2247C35.85 16.0472 35.9338 15.9048 36.0379 15.8026C36.1443 15.7012 36.262 15.6301 36.3933 15.5898C36.5246 15.5491 36.674 15.5357 36.7781 15.5357C36.9275 15.5357 37.0927 15.5744 37.0927 15.5744C37.147 15.5808 37.1787 15.5468 37.1968 15.497C37.2466 15.3659 37.3847 14.9733 37.4119 14.8952Z" fill="white"/>
<path d="M30.3459 12.9096C30.2554 12.8816 30.1716 12.8623 30.063 12.8419C29.9521 12.8222 29.8208 12.8125 29.6736 12.8125C29.1553 12.8125 28.7456 12.959 28.4604 13.2479C28.1751 13.5354 27.9805 13.9729 27.8831 14.5487L27.8469 14.7422H27.1972C27.1972 14.7422 27.118 14.7395 27.1022 14.8256L26.9958 15.4222C26.9867 15.4788 27.0116 15.5145 27.0886 15.5145H27.7201L27.0796 19.1023C27.0298 19.3912 26.9709 19.6287 26.9075 19.8092C26.8441 19.9867 26.783 20.1198 26.706 20.217C26.6336 20.31 26.5635 20.3791 26.4458 20.4194C26.3462 20.4524 26.233 20.4678 26.1062 20.4678C26.0383 20.4678 25.9455 20.4565 25.8776 20.4425C25.8097 20.4291 25.7735 20.4144 25.7237 20.3924C25.7237 20.3924 25.649 20.3644 25.6195 20.4382C25.5969 20.4995 25.4271 20.9639 25.4068 21.021C25.3864 21.078 25.4158 21.1224 25.4498 21.1357C25.5358 21.1654 25.5969 21.1851 25.7123 21.2125C25.8731 21.2501 26.0066 21.2521 26.1334 21.2521C26.396 21.2521 26.6359 21.2148 26.8373 21.143C27.0365 21.0703 27.2108 20.9442 27.367 20.7737C27.5323 20.589 27.6387 20.3961 27.7383 20.1318C27.8379 19.871 27.9216 19.547 27.9895 19.1693L28.6369 15.5145H29.5808C29.5808 15.5145 29.66 15.5175 29.6759 15.4308L29.7823 14.8346C29.7891 14.7776 29.7665 14.7425 29.6895 14.7425H28.7727C28.7773 14.7219 28.8202 14.3992 28.9244 14.0956C28.9696 13.9665 29.0534 13.8617 29.1258 13.7897C29.196 13.7193 29.2775 13.6693 29.3658 13.6403C29.4563 13.6108 29.5605 13.5966 29.6736 13.5966C29.7597 13.5966 29.8434 13.6066 29.9091 13.6199C29.9973 13.6389 30.0313 13.6489 30.0539 13.6559C30.149 13.684 30.1603 13.6566 30.1807 13.6115L30.398 13.0097C30.4206 12.945 30.3663 12.9173 30.3459 12.9096ZM17.5407 19.1102C17.5407 19.158 17.5068 19.197 17.4593 19.197H16.6987C16.6512 19.197 16.6172 19.158 16.6172 19.1102V12.9914C16.6172 12.9436 16.6512 12.9047 16.6987 12.9047H17.4593C17.5068 12.9047 17.5407 12.9436 17.5407 12.9914V19.1102Z" fill="white"/>
</g>
</svg>
