<svg width="42" height="42" viewBox="0 0 42 42" fill="none" xmlns="http://www.w3.org/2000/svg">
<mask id="mask0_4038_27736" style="mask-type:luminance" maskUnits="userSpaceOnUse" x="0" y="0" width="42" height="42">
<path d="M41.2481 0.734375H0.0390625V41.9535H41.2481V0.734375Z" fill="white"/>
</mask>
<g mask="url(#mask0_4038_27736)">
<path d="M9.06403 0.734375H32.2252C37.2096 0.734375 41.2501 4.77588 41.2501 9.76154V32.9265C41.2501 37.9122 37.2096 41.9537 32.2252 41.9537H9.06403C4.07958 41.9537 0.0390625 37.9122 0.0390625 32.9265V9.76154C0.0390625 4.77588 4.07958 0.734375 9.06403 0.734375Z" fill="url(#paint0_linear_4038_27736)"/>
<path d="M13.2491 30.6535L13.2537 30.6549L11.8435 33.0959C11.3297 33.9868 10.191 34.292 9.29917 33.7776C8.40958 33.2634 8.10401 32.1241 8.61784 31.2329L9.65687 29.4348L9.75641 29.2622C9.93297 29.0064 10.3721 28.5651 11.2504 28.648C11.2504 28.648 13.3171 28.8723 13.4665 29.9465C13.4665 29.9465 13.4868 30.2999 13.2491 30.6535ZM33.2322 24.4192H28.8386C28.5398 24.3991 28.4108 24.2922 28.3587 24.2299L28.3541 24.2243L23.6527 16.076L23.6459 16.0801L23.3629 15.6757C22.9012 14.9686 22.1677 16.777 22.1677 16.777C21.2917 18.7923 22.2923 21.0832 22.6409 21.7758L29.1736 33.0934C29.6874 33.9843 30.826 34.2898 31.7179 33.7751C32.6075 33.2607 32.9131 32.1214 32.3992 31.2302L30.7649 28.4003C30.7332 28.3317 30.6789 28.1455 31.0139 28.1449H33.2322C34.2621 28.1449 35.0951 27.3108 35.0951 26.2819C35.0951 25.2531 34.2621 24.4192 33.2322 24.4192ZM24.6985 26.9517C24.6985 26.9517 24.9339 28.1449 24.0262 28.1449H7.78488C6.75494 28.1449 5.92188 27.3108 5.92188 26.2819C5.92188 25.2531 6.75494 24.419 7.78488 24.419H11.9612C12.6334 24.38 12.7942 23.9906 12.7942 23.9906L12.7987 23.9926L18.2495 14.5496L18.2472 14.5493C18.3468 14.3668 18.263 14.1943 18.2495 14.1671L16.4499 11.0485C15.9338 10.1575 16.2394 9.01823 17.1313 8.50381C18.0209 7.9894 19.1594 8.2946 19.6755 9.18555L20.5085 10.6319L21.3438 9.18826C21.8576 8.29732 22.9962 7.99189 23.8881 8.50653C24.7777 9.02094 25.0832 10.16 24.5694 11.0512L16.9841 24.1914C16.9502 24.2714 16.9411 24.397 17.1878 24.419H21.7218V24.4634C21.7218 24.4634 24.3431 24.5041 24.6985 26.9517Z" fill="white"/>
</g>
<defs>
<linearGradient id="paint0_linear_4038_27736" x1="20.6446" y1="0.734375" x2="20.6446" y2="41.9537" gradientUnits="userSpaceOnUse">
<stop stop-color="#17C9FB"/>
<stop offset="1" stop-color="#1A74E8"/>
</linearGradient>
</defs>
</svg>
