<svg width="42" height="41" viewBox="0 0 42 41" fill="none" xmlns="http://www.w3.org/2000/svg">
<mask id="mask0_4038_27613" style="mask-type:luminance" maskUnits="userSpaceOnUse" x="0" y="0" width="42" height="41">
<path d="M41.2559 0.972656H0.046875V40.4936H41.2559V0.972656Z" fill="white"/>
</mask>
<g mask="url(#mask0_4038_27613)">
<path d="M35.5925 3.44531H14.3645C13.905 3.44531 13.4636 3.62644 13.1399 3.95248C12.8139 4.27852 12.6328 4.71776 12.6328 5.17965V7.14947L24.596 10.8559L37.3264 7.14947V5.17965C37.3264 4.71776 37.143 4.27852 36.8194 3.95248C36.4934 3.62644 36.052 3.44531 35.5925 3.44531Z" fill="#0364B8"/>
<path d="M39.3566 22.4648C39.5377 21.8965 39.6826 21.3169 39.789 20.7305C39.789 20.5856 39.7505 20.4452 39.6781 20.3207C39.6056 20.1961 39.5038 20.092 39.377 20.0195L39.3611 20.0105L39.3566 20.0059L25.9742 12.3825C25.9176 12.344 25.8566 12.3101 25.7954 12.2784C25.5397 12.1516 25.2589 12.0859 24.9715 12.0859C24.6862 12.0859 24.4056 12.1516 24.1498 12.2784C24.0865 12.3101 24.0276 12.344 23.9687 12.3803L10.5885 20.0082L10.5818 20.0105L10.5682 20.0195C10.4437 20.092 10.3396 20.1939 10.2672 20.3207C10.1948 20.4452 10.1562 20.5856 10.1562 20.7305C10.2626 21.3169 10.4075 21.8965 10.5885 22.4648L24.7768 32.8459L39.3566 22.4648Z" fill="#0A2767"/>
<path d="M29.9127 7.14453H21.2702L18.7734 10.8509L21.2702 14.5551L29.9127 21.9657H37.3214V14.5551L29.9127 7.14453Z" fill="#28A8EA"/>
<path d="M12.6328 7.14453H21.2752V14.5551H12.6328V7.14453Z" fill="#0078D4"/>
<path d="M29.9062 7.14453H37.3149V14.5551H29.9062V7.14453Z" fill="#50D9FF"/>
<path d="M29.9176 21.9692L21.2752 14.5586H12.6328V21.9692L21.2752 29.3797L34.6486 31.5624L29.9176 21.9692Z" fill="#0364B8"/>
<path d="M21.2734 14.5586H29.9158V21.9692H21.2734V14.5586Z" fill="#0078D4"/>
<path d="M12.6328 21.9688H21.2752V29.3793H12.6328V21.9688Z" fill="#064A8C"/>
<path d="M29.9062 21.9688H37.3149V29.3793H29.9062V21.9688Z" fill="#0078D4"/>
<path opacity="0.5" d="M25.2157 32.1156L10.6562 21.4945L11.2675 20.4213C11.2675 20.4213 24.5343 27.9791 24.7358 28.0923C24.8195 28.1262 24.9079 28.1421 24.9962 28.1375C25.0867 28.1353 25.1726 28.1149 25.2541 28.0764L38.7544 20.3828L39.3654 21.456L25.2157 32.1156Z" fill="#0A2767"/>
<path d="M39.3866 21.4437L39.3685 21.455L39.3639 21.4573L25.9838 29.0807C25.7167 29.2527 25.411 29.3524 25.0964 29.3727C24.7795 29.3931 24.4649 29.332 24.1797 29.1939L28.8405 35.4452L39.0311 37.664V37.6686C39.2688 37.4965 39.4612 37.2724 39.5948 37.012C39.7283 36.7516 39.7962 36.4618 39.7962 36.1697V20.7305C39.7962 20.8754 39.7578 21.018 39.6876 21.1426C39.6152 21.2671 39.5111 21.3712 39.3866 21.4437Z" fill="#1490DF"/>
<path opacity="0.05" d="M39.7962 36.1741V35.2639L27.4709 28.2383L25.9838 29.0873C25.7167 29.2571 25.411 29.359 25.0964 29.3771C24.7795 29.3975 24.4649 29.3364 24.1797 29.1983L28.8405 35.4496L39.0311 37.6685V37.673C39.2688 37.5032 39.4612 37.2768 39.5948 37.0164C39.7283 36.756 39.7962 36.4662 39.7962 36.1741Z" fill="black"/>
<path opacity="0.1" d="M39.7352 36.6434L26.2238 28.9453L25.9838 29.0812C25.7167 29.2532 25.411 29.3551 25.0964 29.3732C24.7795 29.3936 24.4649 29.3325 24.1797 29.1966L28.8405 35.4457L39.0311 37.6646V37.6714C39.3774 37.42 39.6265 37.0578 39.7352 36.6457V36.6434Z" fill="black"/>
<path d="M10.5887 21.4595V21.4482H10.5751L10.5389 21.4233C10.4212 21.3509 10.3239 21.249 10.256 21.1267C10.1881 21.0067 10.1541 20.8708 10.1564 20.7305V36.1697C10.1564 36.412 10.2039 36.6542 10.2967 36.8784C10.3895 37.1048 10.5254 37.3086 10.6974 37.4807C10.8694 37.6527 11.0731 37.7886 11.2995 37.8814C11.5236 37.9743 11.7635 38.0218 12.008 38.0218H37.9375C38.0914 38.0195 38.2453 37.9992 38.3947 37.9607C38.4717 37.9471 38.5464 37.9222 38.6166 37.8859C38.6415 37.8837 38.6687 37.8746 38.6913 37.861C38.7909 37.8203 38.886 37.7659 38.9743 37.7003C38.9992 37.689 39.0104 37.6889 39.024 37.664L10.5887 21.4595Z" fill="#28A8EA"/>
<path opacity="0.1" d="M22.5019 31.4368V11.2632C22.5019 10.8285 22.3275 10.4097 22.0197 10.1017C21.7118 9.7938 21.2931 9.61945 20.8563 9.61719H12.662V18.8255L10.5885 20.0096L10.5818 20.0119L10.5659 20.021C10.4414 20.0934 10.3373 20.1976 10.2648 20.3221C10.1947 20.4466 10.1562 20.5893 10.1562 20.7342V33.0828H20.8563C21.2931 33.0828 21.7118 32.9085 22.0197 32.6006C22.3275 32.2904 22.5019 31.8738 22.5019 31.4368Z" fill="black"/>
<path opacity="0.2" d="M21.2682 32.6751V12.5015C21.266 12.0668 21.094 11.6479 20.7839 11.34C20.476 11.0321 20.0595 10.8577 19.6226 10.8555H12.662V18.8298L10.5885 20.0117L10.5818 20.014L10.5659 20.023C10.4414 20.0955 10.3373 20.1996 10.2648 20.3242C10.1947 20.4487 10.1562 20.5913 10.1562 20.7362V34.3211H19.6226C20.0595 34.3211 20.476 34.1468 20.7839 33.8389C21.094 33.5287 21.266 33.1121 21.2682 32.6751Z" fill="black"/>
<path opacity="0.2" d="M21.2682 30.2049V12.5015C21.266 12.0668 21.094 11.6479 20.7839 11.34C20.476 11.0321 20.0595 10.8577 19.6226 10.8555H12.662V18.8298L10.5885 20.0117L10.5818 20.014L10.5659 20.023C10.4414 20.0955 10.3373 20.1996 10.2648 20.3242C10.1947 20.4487 10.1562 20.5913 10.1562 20.7362V31.8509H19.6226C20.0595 31.8509 20.476 31.6766 20.7839 31.3687C21.094 31.0585 21.266 30.6419 21.2682 30.2049Z" fill="black"/>
<path opacity="0.2" d="M20.0346 30.2049V12.5015C20.0324 12.0668 19.858 11.6479 19.5501 11.34C19.2423 11.0321 18.8235 10.8577 18.3867 10.8555H12.662V18.8298L10.5885 20.0117L10.5818 20.014L10.5659 20.023C10.4414 20.0955 10.3373 20.1996 10.2648 20.3242C10.1947 20.4487 10.1562 20.5913 10.1562 20.7362V31.8509H18.3867C18.8235 31.8509 19.2423 31.6766 19.5501 31.3687C19.858 31.0585 20.0324 30.6419 20.0346 30.2049Z" fill="black"/>
<path d="M1.92921 10.8555H18.3922C18.8291 10.8555 19.248 11.0298 19.5558 11.3377C19.8637 11.6479 20.038 12.0645 20.038 12.5015V28.9709C20.038 29.4057 19.8637 29.8245 19.5558 30.1347C19.248 30.4427 18.8291 30.617 18.3922 30.617H1.92921C1.49234 30.617 1.07354 30.4427 0.763425 30.1347C0.455576 29.8245 0.28125 29.4057 0.28125 28.9709V12.5015C0.28125 12.0645 0.455576 11.6479 0.763425 11.3377C1.07354 11.0298 1.49234 10.8555 1.92921 10.8555Z" fill="#0078D4"/>
<path d="M5.05645 17.6047C5.49332 16.6741 6.19961 15.893 7.08241 15.3654C8.06255 14.8039 9.17853 14.5254 10.3058 14.5571C11.3493 14.5345 12.3815 14.7994 13.2846 15.3224C14.1358 15.8296 14.8217 16.5745 15.2585 17.4643C15.7339 18.4447 15.9693 19.5224 15.9489 20.6137C15.9715 21.7503 15.7294 22.8779 15.2382 23.9058C14.7923 24.8273 14.086 25.5971 13.2055 26.1201C12.2661 26.6613 11.1953 26.933 10.1133 26.9081C9.04493 26.933 7.99234 26.6658 7.06653 26.1337C6.20862 25.6243 5.51371 24.8816 5.06778 23.9896C4.59016 23.0228 4.34804 21.9564 4.36842 20.8786C4.34804 19.7488 4.58109 18.6303 5.05645 17.6047ZM7.21601 22.8643C7.44916 23.453 7.84522 23.9647 8.35679 24.3383C8.87742 24.7028 9.50214 24.893 10.1382 24.8749C10.815 24.902 11.4829 24.7073 12.0397 24.3224C12.5467 23.9466 12.9315 23.4326 13.1488 22.8439C13.391 22.1851 13.511 21.4877 13.502 20.7858C13.5088 20.0794 13.3956 19.3752 13.1669 18.705C12.9655 18.1005 12.5943 17.5707 12.0986 17.1722C11.5553 16.7669 10.8898 16.5609 10.213 16.5881C9.56331 16.5722 8.92504 16.7624 8.38857 17.1315C7.86794 17.505 7.46272 18.0213 7.22278 18.6167C6.6931 19.982 6.69086 21.4967 7.21601 22.8643Z" fill="white"/>
</g>
</svg>
