<svg width="42" height="40" viewBox="0 0 42 40" fill="none" xmlns="http://www.w3.org/2000/svg">
<mask id="mask0_4038_27603" style="mask-type:luminance" maskUnits="userSpaceOnUse" x="0" y="0" width="42" height="40">
<path d="M41.5918 0.285156H0.382812V39.1796H41.5918V0.285156Z" fill="white"/>
</mask>
<g mask="url(#mask0_4038_27603)">
<path d="M14.1279 0.326499H26.3082L13.6638 37.8186C13.6004 38.011 13.5054 38.1899 13.3854 38.3529C13.2654 38.5159 13.1205 38.6586 12.9575 38.7763C12.7923 38.894 12.6112 38.9869 12.4188 39.048C12.2264 39.1091 12.025 39.1408 11.8235 39.1408H2.34579C2.03794 39.1408 1.73464 39.0684 1.46075 38.928C1.18685 38.7876 0.949189 38.5816 0.770364 38.3325C0.59154 38.0812 0.473831 37.7914 0.428559 37.488C0.381023 37.1823 0.410389 36.8721 0.507724 36.5801L12.2876 1.64648C12.3532 1.45629 12.446 1.27518 12.566 1.11216C12.6859 0.949141 12.8308 0.80649 12.9961 0.688754C13.159 0.571018 13.3401 0.480445 13.5325 0.419313C13.7249 0.355916 13.9264 0.324219 14.1279 0.324219V0.326499Z" fill="url(#paint0_linear_4038_27603)"/>
<path d="M36.5799 39.143H25.6444C25.5222 39.143 25.3999 39.1317 25.28 39.109C25.16 39.0864 25.0422 39.0524 24.929 39.0071C24.8159 38.9619 24.705 38.9053 24.6031 38.8419C24.499 38.7762 24.4017 38.7015 24.3134 38.6177L11.902 27.0253C11.7707 26.903 11.6803 26.7422 11.6395 26.5679C11.5988 26.3935 11.6146 26.2101 11.6803 26.0426C11.7459 25.8751 11.859 25.7324 12.0084 25.6305C12.1578 25.5286 12.3321 25.4766 12.5132 25.4766H31.8262L36.5799 39.143Z" fill="#0078D4"/>
<path d="M26.3572 0.324219L17.8302 25.4767L31.7604 25.4721L36.5389 39.1408H25.6442C25.531 39.1385 25.4201 39.1295 25.307 39.1091C25.196 39.0888 25.0873 39.0593 24.9809 39.0208C24.7681 38.9438 24.5712 38.8307 24.3969 38.6857L16.0194 30.8654L13.6742 37.7823C13.6131 37.9567 13.5294 38.1197 13.4253 38.2714C13.217 38.5748 12.9318 38.8171 12.6013 38.9733C12.4338 39.0525 12.2594 39.1091 12.0784 39.1408H2.35625C2.04387 39.1408 1.73838 39.0684 1.46222 38.9235C1.18606 38.7808 0.948313 38.5748 0.769489 38.3189C0.588401 38.0654 0.472987 37.771 0.432242 37.4631C0.389234 37.1552 0.42317 36.8405 0.527296 36.5484L12.2889 1.67139C12.35 1.47667 12.4428 1.29328 12.5605 1.128C12.6805 0.962717 12.8254 0.815543 12.9906 0.695543C13.1559 0.575543 13.337 0.480445 13.5317 0.419313C13.7263 0.355916 13.93 0.324219 14.1338 0.324219H26.3572Z" fill="url(#paint1_linear_4038_27603)"/>
<path d="M41.4637 36.5778C41.5633 36.8699 41.5905 37.1824 41.5452 37.4857C41.4999 37.7914 41.3822 38.0812 41.2034 38.3303C41.0223 38.5816 40.7869 38.7853 40.513 38.9257C40.2391 39.0661 39.9358 39.1408 39.628 39.1408H26.0532C26.361 39.1408 26.6643 39.0661 26.9382 38.9257C27.2121 38.7853 27.4498 38.5816 27.6286 38.3303C27.8074 38.0812 27.9251 37.7914 27.9704 37.4857C28.0179 37.1824 27.9886 36.8699 27.8912 36.5778L16.1115 1.64422C15.9802 1.25931 15.7334 0.92649 15.4029 0.688754C15.2399 0.571018 15.0588 0.480446 14.8664 0.41705C14.6763 0.355918 14.4749 0.324219 14.2734 0.324219H27.8483C28.0497 0.324219 28.2488 0.355918 28.4412 0.41705C28.6336 0.480446 28.8148 0.571018 28.9801 0.688754C29.143 0.80649 29.2878 0.949141 29.4078 1.11216C29.5278 1.27291 29.6205 1.45403 29.6862 1.64422L41.466 36.5778H41.4637Z" fill="url(#paint2_linear_4038_27603)"/>
</g>
<defs>
<linearGradient id="paint0_linear_4038_27603" x1="18.5735" y1="3.20195" x2="5.90994" y2="40.6016" gradientUnits="userSpaceOnUse">
<stop stop-color="#114A8B"/>
<stop offset="1" stop-color="#0669BC"/>
</linearGradient>
<linearGradient id="paint1_linear_4038_27603" x1="22.5249" y1="20.6291" x2="19.5957" y2="21.6204" gradientUnits="userSpaceOnUse">
<stop stop-opacity="0.3"/>
<stop offset="0.1" stop-opacity="0.2"/>
<stop offset="0.3" stop-opacity="0.1"/>
<stop offset="0.6" stop-opacity="0.1"/>
<stop offset="1" stop-opacity="0"/>
</linearGradient>
<linearGradient id="paint2_linear_4038_27603" x1="20.9035" y1="2.11063" x2="34.8012" y2="39.1272" gradientUnits="userSpaceOnUse">
<stop stop-color="#3CCBF4"/>
<stop offset="1" stop-color="#2892DF"/>
</linearGradient>
</defs>
</svg>
