<svg width="42" height="34" viewBox="0 0 42 34" fill="none" xmlns="http://www.w3.org/2000/svg">
<path d="M27.7898 9.92544L31.3731 6.34243L31.6108 4.8345C25.0825 -1.10346 14.7085 -0.429197 8.82314 6.23895C7.18655 8.09035 5.97551 10.3998 5.32812 12.7853L6.61162 12.6037L13.7759 11.4227L14.3282 10.8576C17.5131 7.35632 22.9027 6.88582 26.5811 9.86363L27.7898 9.92544Z" fill="#EA4335"/>
<path d="M36.4753 12.6775C35.6513 9.64516 33.9604 6.91799 31.6108 4.83203L26.5811 9.86139C28.7043 11.5966 29.9131 14.2092 29.8633 16.9511V17.8432C32.3329 17.8432 34.3362 19.8472 34.3362 22.3183C34.3362 24.7894 32.3329 26.7445 29.8633 26.7445H20.9017L20.0234 27.7002V33.0692L20.9017 33.9121H29.8633C36.2896 33.9631 41.5412 28.8411 41.591 22.4127C41.6227 18.5154 39.7009 14.8615 36.4753 12.6775Z" fill="#4285F4"/>
<path d="M11.9559 33.9151H20.9039V26.7491H11.9559C11.3221 26.7491 10.6951 26.611 10.1201 26.3477L8.85023 26.7364L5.24207 30.3194L4.92969 31.5387C6.95334 33.0665 9.42068 33.926 11.9559 33.9151Z" fill="#34A853"/>
<path d="M11.9523 10.668C5.52364 10.7061 0.344544 15.9499 0.383026 22.38C0.403398 25.9703 2.0807 29.3498 4.92604 31.5392L10.1165 26.3464C7.86419 25.3289 6.86368 22.678 7.8823 20.4249C8.89866 18.1719 11.5493 17.1709 13.8016 18.1884C14.793 18.6372 15.5876 19.4312 16.038 20.4249L21.2285 15.2321C19.0192 12.3433 15.5876 10.6554 11.9523 10.668Z" fill="#FBBC05"/>
</svg>
