<svg width="41" height="31" viewBox="0 0 41 31" fill="none" xmlns="http://www.w3.org/2000/svg">
<path d="M34.0012 2.79672C38.4763 9.37792 40.6878 16.8014 39.8616 25.3474C39.8571 25.3837 39.8389 25.4167 39.8095 25.4387C36.4209 27.9277 33.1364 29.4381 29.8995 30.44C29.8746 30.4477 29.8474 30.4472 29.8225 30.4386C29.7976 30.4302 29.775 30.4142 29.7591 30.3929C29.0121 29.352 28.333 28.2546 27.7377 27.1022C27.7038 27.0345 27.7355 26.9527 27.8057 26.9258C28.8832 26.5191 29.9108 26.0317 30.8977 25.4545C30.9747 25.4088 30.9792 25.2974 30.909 25.244C30.6985 25.0884 30.4903 24.9249 30.2934 24.7612C30.2549 24.7311 30.2051 24.7252 30.1643 24.7454C23.7538 27.7055 16.7343 27.7055 10.2491 24.7454C10.2084 24.7266 10.1587 24.7332 10.1224 24.7628C9.92324 24.9263 9.71491 25.0884 9.50666 25.244C9.43649 25.2974 9.44111 25.4088 9.52034 25.4545C10.5073 26.0208 11.5326 26.5191 12.6123 26.9278C12.6802 26.9545 12.7143 27.0345 12.6803 27.1022C12.0963 28.2562 11.4171 29.3534 10.6566 30.3942C10.6226 30.4363 10.5684 30.4558 10.5163 30.44C7.29523 29.4381 4.01067 27.9277 0.622063 25.4387C0.5949 25.4167 0.574504 25.3821 0.569977 25.3458C-0.12042 17.9536 1.28753 10.4688 6.42364 2.79513C6.43722 2.77498 6.45544 2.75913 6.47807 2.74962C9.00425 1.58924 11.7138 0.735657 14.5432 0.248185C14.5953 0.240261 14.6451 0.264036 14.6723 0.309772C15.0231 0.929017 15.4215 1.72306 15.6931 2.37219C18.6766 1.91641 21.7053 1.91641 24.7521 2.37219C25.0215 1.73709 25.4085 0.929017 25.7549 0.309772C25.7684 0.28713 25.7865 0.269016 25.8114 0.257921C25.834 0.246827 25.8612 0.243431 25.8861 0.248185C28.7179 0.737242 31.4251 1.59083 33.9513 2.74962C33.9717 2.75913 33.9921 2.77498 34.0012 2.79672ZM17.2097 16.8519C17.2414 14.6665 15.6478 12.8584 13.6491 12.8584C11.6639 12.8584 10.0862 14.6507 10.0862 16.8519C10.0862 19.0526 11.6956 20.8449 13.6491 20.8449C15.632 20.8449 17.2097 19.0526 17.2097 16.8519ZM30.3748 16.8519C30.4065 14.6665 28.8129 12.8584 26.8141 12.8584C24.8312 12.8584 23.2535 14.6507 23.2535 16.8519C23.2535 19.0526 24.8629 20.8449 26.8141 20.8449C28.8129 20.8449 30.3748 19.0526 30.3748 16.8519Z" fill="#5865F2"/>
</svg>
