<svg width="60" height="63" viewBox="0 0 60 63" fill="none" xmlns="http://www.w3.org/2000/svg">
<g filter="url(#filter0_d_4038_27130)">
<path d="M6 12.2109C6 5.58352 11.3726 0.210938 18 0.210938H42C48.6274 0.210938 54 5.58352 54 12.2109V36.2109C54 42.8384 48.6274 48.2109 42 48.2109H18C11.3726 48.2109 6 42.8384 6 36.2109V12.2109Z" fill="url(#paint0_linear_4038_27130)" shape-rendering="crispEdges"/>
<path d="M7 12.2109C7 6.13581 11.9249 1.21094 18 1.21094H42C48.0751 1.21094 53 6.13581 53 12.2109V36.2109C53 42.2861 48.0751 47.2109 42 47.2109H18C11.9249 47.2109 7 42.2861 7 36.2109V12.2109Z" fill="url(#paint1_linear_4038_27130)"/>
<g clip-path="url(#clip0_4038_27130)">
<g opacity="0.65">
<path d="M31.88 26.5849C32.1597 26.4913 32.4657 26.5111 32.7308 26.6404C32.996 26.7697 33.1997 26.998 33.2981 27.276C33.3966 27.5541 33.3819 27.8597 33.2573 28.127C33.1326 28.3943 32.9079 28.602 32.6316 28.7053L32.6254 28.7076C32.286 28.8277 31.9227 28.8645 31.566 28.8151C31.2094 28.7656 30.8699 28.6313 30.5759 28.4235C30.2819 28.2156 30.0422 27.9402 29.8767 27.6204C29.7112 27.3007 29.6249 26.9459 29.625 26.5859H30L31.88 26.5849ZM31.88 26.5849C31.8784 26.5854 31.8767 26.5858 31.875 26.5859L31.88 26.5849ZM28.5 28.8361C28.5 27.5503 27.7476 26.5915 27.1082 25.7767L27.0911 25.755C27.091 25.7549 27.0912 25.7551 27.0911 25.755C26.4115 24.8852 25.875 24.1777 25.875 23.2109C25.875 22.1169 26.3096 21.0677 27.0832 20.2941C27.8568 19.5205 28.906 19.0859 30 19.0859C31.094 19.0859 32.1432 19.5205 32.9168 20.2941C33.6904 21.0677 34.125 22.1169 34.125 23.2109C34.125 23.5093 34.2435 23.7954 34.4545 24.0064C34.6655 24.2174 34.9516 24.3359 35.25 24.3359C35.5484 24.3359 35.8345 24.2174 36.0455 24.0064C36.2565 23.7954 36.375 23.5093 36.375 23.2109C36.375 21.5202 35.7034 19.8987 34.5078 18.7031C33.3123 17.5076 31.6908 16.8359 30 16.8359C28.3092 16.8359 26.6877 17.5076 25.4922 18.7031C24.2966 19.8987 23.625 21.5202 23.625 23.2109C23.625 24.973 24.589 26.2072 25.3005 27.118L25.3179 27.1402C25.5935 27.4928 25.8293 27.7958 25.9992 28.0858C26.1678 28.3735 26.25 28.614 26.25 28.8359C26.2502 29.5742 26.4683 30.2961 26.877 30.9109C27.2857 31.5258 27.8667 32.0063 28.5474 32.2923C29.228 32.5783 29.978 32.657 30.7031 32.5186C31.4262 32.3806 32.0926 32.0328 32.6193 31.5187C32.7287 31.418 32.8171 31.2965 32.8793 31.1613C32.9426 31.0239 32.9774 30.8751 32.9819 30.7238C32.9863 30.5725 32.9601 30.4219 32.905 30.281C32.8498 30.1401 32.7668 30.0118 32.6609 29.9037C32.555 29.7956 32.4283 29.71 32.2886 29.652C32.1488 29.594 31.9988 29.5647 31.8475 29.5661C31.6961 29.5674 31.5466 29.5993 31.4079 29.6597C31.2717 29.7191 31.1486 29.8048 31.0457 29.912C30.8354 30.1165 30.5697 30.2549 30.2815 30.31C29.9913 30.3654 29.6912 30.3339 29.4188 30.2194C29.1464 30.1049 28.914 29.9126 28.7505 29.6665C28.587 29.4204 28.4999 29.1315 28.5 28.8361ZM24.7915 16.9159C26.3332 15.8858 28.1457 15.336 29.9998 15.3359C32.4854 15.3386 34.8685 16.3272 36.6261 18.0848C38.3838 19.8425 39.3724 22.2256 39.375 24.7113C39.3749 26.5654 38.8251 28.3778 37.795 29.9194C36.7649 31.4611 35.3007 32.6627 33.5877 33.3723C31.8746 34.0819 29.9896 34.2675 28.171 33.9058C26.3525 33.544 24.682 32.6512 23.3709 31.34C22.0598 30.0289 21.1669 28.3585 20.8051 26.5399C20.4434 24.7213 20.6291 22.8363 21.3386 21.1233C22.0482 19.4102 23.2498 17.946 24.7915 16.9159Z" fill="#6B5EE0"/>
<path d="M31.88 26.5849C32.1597 26.4913 32.4657 26.5111 32.7308 26.6404C32.996 26.7697 33.1997 26.998 33.2981 27.276C33.3966 27.5541 33.3819 27.8597 33.2573 28.127C33.1326 28.3943 32.9079 28.602 32.6316 28.7053L32.6254 28.7076C32.286 28.8277 31.9227 28.8645 31.566 28.8151C31.2094 28.7656 30.8699 28.6313 30.5759 28.4235C30.2819 28.2156 30.0422 27.9402 29.8767 27.6204C29.7112 27.3007 29.6249 26.9459 29.625 26.5859H30L31.88 26.5849ZM31.88 26.5849C31.8784 26.5854 31.8767 26.5858 31.875 26.5859L31.88 26.5849ZM27.0911 25.755L27.1082 25.7767C27.7476 26.5915 28.5 27.5503 28.5 28.8361C28.4999 29.1315 28.587 29.4204 28.7505 29.6665C28.914 29.9126 29.1464 30.1049 29.4188 30.2194C29.6912 30.3339 29.9913 30.3654 30.2815 30.31C30.5697 30.2549 30.8354 30.1165 31.0457 29.912C31.1486 29.8048 31.2717 29.7191 31.4079 29.6597C31.5466 29.5993 31.6961 29.5674 31.8475 29.5661C31.9988 29.5647 32.1488 29.594 32.2886 29.652C32.4283 29.71 32.555 29.7956 32.6609 29.9037C32.7668 30.0118 32.8498 30.1401 32.905 30.281C32.9601 30.4219 32.9863 30.5725 32.9819 30.7238C32.9774 30.8751 32.9426 31.0239 32.8793 31.1613C32.8171 31.2965 32.7287 31.418 32.6193 31.5187C32.0926 32.0328 31.4262 32.3806 30.7031 32.5186C29.978 32.657 29.228 32.5783 28.5474 32.2923C27.8668 32.0063 27.2857 31.5258 26.877 30.9109C26.4683 30.2961 26.2502 29.5742 26.25 28.8359C26.25 28.614 26.1678 28.3735 25.9992 28.0858C25.8293 27.7958 25.5935 27.4928 25.3179 27.1402L25.3005 27.118C24.589 26.2072 23.625 24.973 23.625 23.2109C23.625 21.5202 24.2966 19.8987 25.4922 18.7031C26.6877 17.5076 28.3092 16.8359 30 16.8359C31.6908 16.8359 33.3123 17.5076 34.5078 18.7031C35.7034 19.8987 36.375 21.5202 36.375 23.2109C36.375 23.5093 36.2565 23.7954 36.0455 24.0064C35.8345 24.2174 35.5484 24.3359 35.25 24.3359C34.9516 24.3359 34.6655 24.2174 34.4545 24.0064C34.2435 23.7954 34.125 23.5093 34.125 23.2109C34.125 22.1169 33.6904 21.0677 32.9168 20.2941C32.1432 19.5205 31.094 19.0859 30 19.0859C28.906 19.0859 27.8568 19.5205 27.0832 20.2941C26.3096 21.0677 25.875 22.1169 25.875 23.2109C25.875 24.1777 26.4115 24.8852 27.0911 25.755ZM27.0911 25.755C27.091 25.7549 27.0912 25.7551 27.0911 25.755ZM24.7915 16.9159C26.3332 15.8858 28.1457 15.336 29.9998 15.3359C32.4854 15.3386 34.8685 16.3272 36.6261 18.0848C38.3838 19.8425 39.3724 22.2256 39.375 24.7113C39.3749 26.5654 38.8251 28.3778 37.795 29.9194C36.7649 31.4611 35.3007 32.6627 33.5877 33.3723C31.8746 34.0819 29.9896 34.2675 28.171 33.9058C26.3525 33.544 24.682 32.6512 23.3709 31.34C22.0598 30.0289 21.1669 28.3585 20.8051 26.5399C20.4434 24.7213 20.6291 22.8363 21.3386 21.1233C22.0482 19.4102 23.2498 17.946 24.7915 16.9159Z" stroke="#5546DD" stroke-width="0.75"/>
</g>
</g>
</g>
<defs>
<filter id="filter0_d_4038_27130" x="0" y="0.210938" width="60" height="62" filterUnits="userSpaceOnUse" color-interpolation-filters="sRGB">
<feFlood flood-opacity="0" result="BackgroundImageFix"/>
<feColorMatrix in="SourceAlpha" type="matrix" values="0 0 0 0 0 0 0 0 0 0 0 0 0 0 0 0 0 0 127 0" result="hardAlpha"/>
<feMorphology radius="10" operator="erode" in="SourceAlpha" result="effect1_dropShadow_4038_27130"/>
<feOffset dy="8"/>
<feGaussianBlur stdDeviation="8"/>
<feComposite in2="hardAlpha" operator="out"/>
<feColorMatrix type="matrix" values="0 0 0 0 0.0392157 0 0 0 0 0.00392157 0 0 0 0 0.388235 0 0 0 0.4 0"/>
<feBlend mode="normal" in2="BackgroundImageFix" result="effect1_dropShadow_4038_27130"/>
<feBlend mode="normal" in="SourceGraphic" in2="effect1_dropShadow_4038_27130" result="shape"/>
</filter>
<linearGradient id="paint0_linear_4038_27130" x1="30" y1="0.210938" x2="30" y2="48.2109" gradientUnits="userSpaceOnUse">
<stop stop-color="#695CE0" stop-opacity="0.2"/>
<stop offset="1" stop-color="#CFCCF5"/>
</linearGradient>
<linearGradient id="paint1_linear_4038_27130" x1="30" y1="1.21094" x2="30" y2="47.2109" gradientUnits="userSpaceOnUse">
<stop stop-color="#E2E0F9"/>
<stop offset="1" stop-color="#CFCCF5"/>
</linearGradient>
<clipPath id="clip0_4038_27130">
<rect width="24" height="25" fill="white" transform="translate(18 11.7109)"/>
</clipPath>
</defs>
</svg>
