<svg width="42" height="42" viewBox="0 0 42 42" fill="none" xmlns="http://www.w3.org/2000/svg">
<mask id="mask0_4038_27701" style="mask-type:luminance" maskUnits="userSpaceOnUse" x="0" y="0" width="42" height="42">
<path d="M41.2715 0.734375H0.0625V41.9535H41.2715V0.734375Z" fill="white"/>
</mask>
<g mask="url(#mask0_4038_27701)">
<path d="M2.87162 36.8024H9.42471V20.8838L0.0625 13.8516V33.991C0.0625 35.5496 1.32332 36.8024 2.87162 36.8024Z" fill="#4285F4"/>
<path d="M31.9062 36.8024H38.4593C40.0076 36.8024 41.2685 35.5408 41.2685 33.991V13.8516L31.9062 20.875V36.8024Z" fill="#34A853"/>
<path d="M31.9062 8.70005V20.8757L41.2685 13.8523V10.1016C41.2685 6.63106 37.3049 4.64405 34.5275 6.73001L31.9062 8.70005Z" fill="#FBBC04"/>
<path d="M9.42969 20.8877V8.70312L20.6707 17.1369L31.914 8.70312V20.8877L20.6707 29.3128L9.42969 20.8877Z" fill="#EA4335"/>
<path d="M0.0625 10.1094V13.8602L9.42471 20.8836V8.69971L6.80349 6.73782C4.02605 4.65186 0.0625 6.63888 0.0625 10.1094Z" fill="#C5221F"/>
</g>
</svg>
