<svg width="42" height="42" viewBox="0 0 42 42" fill="none" xmlns="http://www.w3.org/2000/svg">
<path d="M41.1391 21.799C41.1391 20.1093 41.001 18.8762 40.7044 17.5977H21.4141V25.224H32.7366C32.508 27.1193 31.2765 29.9737 28.5376 31.8917L28.4991 32.1469L34.5972 36.8731L35.0206 36.9152C38.9004 33.3303 41.1391 28.0555 41.1391 21.799Z" fill="#4285F4"/>
<path d="M21.4158 41.8963C26.9638 41.8963 31.6201 40.0696 35.0223 36.9186L28.5393 31.8949C26.8031 33.1051 24.4739 33.9501 21.4158 33.9501C15.9831 33.9501 11.3722 30.3653 9.72881 25.4102L9.48662 25.4305L3.14401 30.3399L3.0625 30.5706C6.43979 37.2838 13.38 41.8963 21.4158 41.8963Z" fill="#34A853"/>
<path d="M9.73245 25.409C9.29784 24.1305 9.04659 22.7602 9.04659 21.3447C9.04659 19.9289 9.29785 18.5589 9.70982 17.2801L9.6985 17.0077L3.27669 12.0195L3.06617 12.1196C1.67406 14.9054 0.875 18.0336 0.875 21.3447C0.875 24.6555 1.67406 27.7837 3.06617 30.5695L9.73245 25.409Z" fill="#FBBC05"/>
<path d="M21.4158 8.73923C25.2729 8.73923 27.8761 10.4061 29.361 11.799L35.1581 6.13614C31.5975 2.82527 26.9638 0.792969 21.4158 0.792969C13.38 0.792969 6.43979 5.4055 3.0625 12.1187L9.70391 17.2792C11.3722 12.3243 15.9831 8.73923 21.4158 8.73923Z" fill="#EB4335"/>
</svg>
