<svg width="38" height="38" viewBox="0 0 38 38" fill="none" xmlns="http://www.w3.org/2000/svg">
<path d="M35.5297 0.535156H17.8125C17.8125 2.65667 18.6546 4.69214 20.1553 6.19327C21.6538 7.69214 23.6888 8.53666 25.8098 8.53666H29.0739V11.6884C29.0762 16.1034 32.6549 19.6808 37.0667 19.6831V2.07252C37.0667 1.22346 36.3785 0.535156 35.5297 0.535156Z" fill="#2684FF"/>
<path d="M26.764 9.36719H9.04688C9.04914 13.78 12.6256 17.3574 17.0397 17.3619H20.3037V20.5227C20.3083 24.9378 23.8893 28.5129 28.3011 28.5129V10.9045C28.3011 10.0555 27.6129 9.36719 26.764 9.36719Z" fill="url(#paint0_linear_4038_27590)"/>
<path d="M17.9828 18.1914H0.265625C0.265625 22.6088 3.84661 26.1906 8.26289 26.1906H11.5383V29.3446C11.5406 33.7552 15.1103 37.3303 19.5198 37.3393V19.7288C19.5198 18.8797 18.8316 18.1914 17.9828 18.1914Z" fill="url(#paint1_linear_4038_27590)"/>
<defs>
<linearGradient id="paint0_linear_4038_27590" x1="4828.65" y1="18.1817" x2="2916.64" y2="2252.1" gradientUnits="userSpaceOnUse">
<stop offset="0.18" stop-color="#0052CC"/>
<stop offset="1" stop-color="#2684FF"/>
</linearGradient>
<linearGradient id="paint1_linear_4038_27590" x1="4949.37" y1="43.104" x2="2737.72" y2="2479.56" gradientUnits="userSpaceOnUse">
<stop offset="0.18" stop-color="#0052CC"/>
<stop offset="1" stop-color="#2684FF"/>
</linearGradient>
</defs>
</svg>
