<svg width="42" height="42" viewBox="0 0 42 42" fill="none" xmlns="http://www.w3.org/2000/svg">
<path d="M5.60344 7.60496C7.53656 5.35077 9.93368 3.54217 12.6342 2.303C15.3324 1.0636 18.266 0.423298 21.2359 0.425788C32.6263 0.425788 41.8572 9.65899 41.8572 21.0508C41.8572 27.3024 39.0753 32.9066 34.6794 36.6884L5.60572 7.60496H5.60344ZM3.76766 10.0883L32.194 38.5226C31.2953 39.0896 30.3491 39.5875 29.3622 40.0099L2.28044 12.9239C2.70373 11.9363 3.20176 10.9883 3.76766 10.0883ZM1.20073 16.163L26.123 41.092C24.9052 41.3874 23.6466 41.5763 22.3541 41.6451L0.648438 19.9328C0.716345 18.6619 0.89967 17.3999 1.20073 16.163ZM0.908729 24.5134L17.7748 41.3856C13.5622 40.6659 9.67793 38.6562 6.65829 35.634C3.63638 32.6121 1.62627 28.7263 0.90645 24.5134H0.908729Z" fill="#5E6AD2"/>
</svg>
