<svg width="42" height="42" viewBox="0 0 42 42" fill="none" xmlns="http://www.w3.org/2000/svg">
<path fill-rule="evenodd" clip-rule="evenodd" d="M41.5213 31.1797C41.5213 31.405 41.5123 31.8904 41.501 32.2744C41.467 33.2002 41.3991 34.3966 41.2859 34.9393C41.1162 35.7524 40.8671 36.5308 40.5412 37.1749C40.1564 37.9316 39.6607 38.6199 39.0721 39.2068C38.4859 39.7936 37.809 40.2904 37.053 40.6744C36.4101 41.002 35.6315 41.2502 34.8075 41.42C34.2642 41.5327 33.0804 41.6002 32.1659 41.6342C31.7811 41.6453 31.2967 41.6566 31.0703 41.6566H10.7885C10.5621 41.6566 10.0777 41.6453 9.69288 41.6342C8.76707 41.6002 7.57188 41.5327 7.02862 41.42C6.21599 41.2509 5.43731 41.002 4.79445 40.6744C4.03841 40.2904 3.35025 39.7936 2.76172 39.2068C2.17544 38.6199 1.67976 37.942 1.29495 37.1863C0.966727 36.543 0.719973 35.7637 0.550203 34.9393C0.437023 34.3975 0.369112 33.2115 0.335158 32.2971C0.32384 31.913 0.3125 31.4276 0.3125 31.2021V10.9146C0.3125 10.6891 0.32384 10.2037 0.335158 9.8197C0.369112 8.89388 0.437023 7.6975 0.550203 7.15501C0.719973 6.34173 0.966727 5.5633 1.29495 4.91915C1.67976 4.16247 2.17544 3.47418 2.76172 2.88731C3.35025 2.30045 4.02708 1.80369 4.78312 1.41969C5.42598 1.09207 6.20467 0.844141 7.02862 0.674103C7.57188 0.561575 8.75573 0.493874 9.67022 0.460138C10.055 0.448817 10.5395 0.4375 10.7658 0.4375H31.0476C31.274 0.4375 31.7584 0.448817 32.1432 0.460138C33.0691 0.493874 34.2642 0.561575 34.8075 0.674103C35.6201 0.843235 36.3988 1.09207 37.0417 1.41969C37.7977 1.80369 38.4859 2.30045 39.0721 2.88731C39.6607 3.47418 40.1564 4.15206 40.5412 4.90806C40.8671 5.55131 41.1162 6.33063 41.2859 7.15501C41.3991 7.69682 41.467 8.88256 41.501 9.79705C41.5123 10.181 41.5213 10.6667 41.5213 10.892V31.1797Z" fill="url(#paint0_linear_4038_27450)"/>
<path fill-rule="evenodd" clip-rule="evenodd" d="M31.7642 10.2936C28.9867 7.51619 25.3084 5.99219 21.3788 5.99219C13.2864 5.99219 6.69479 12.5743 6.69479 20.6806C6.69479 23.2656 7.37162 25.7951 8.65734 28.0188L6.57031 35.6281L14.3594 33.5849C16.503 34.7587 18.9182 35.3689 21.3788 35.3689H21.3901C29.4824 35.3689 36.074 28.7754 36.074 20.6806C36.0627 16.751 34.5393 13.0704 31.7642 10.2936ZM21.3788 32.8844C19.1899 32.8844 17.0327 32.2975 15.1607 31.1793L14.7193 30.9194L10.0925 32.1277L11.3216 27.6234L11.0296 27.1604C9.80952 25.2187 9.16667 22.9717 9.16667 20.6684C9.16667 13.9398 14.64 8.46465 21.3788 8.46465C24.6406 8.46465 27.6987 9.74049 30.0121 12.0431C32.3165 14.3462 33.5909 17.4169 33.5796 20.6797C33.5796 27.4083 28.1062 32.8844 21.3788 32.8844ZM28.0722 23.7397C27.6987 23.5595 25.906 22.6674 25.5664 22.5434C25.2291 22.4195 24.9914 22.3631 24.7424 22.7238C24.4934 23.0965 23.794 23.9202 23.5812 24.1577C23.3662 24.4063 23.1512 24.429 22.789 24.2478C22.4178 24.0674 21.243 23.672 19.8441 22.4299C18.7485 21.4591 18.0151 20.2507 17.8023 19.89C17.5873 19.5173 17.7797 19.3255 17.9585 19.1444C18.1283 18.9755 18.332 18.7154 18.5131 18.5012C18.6919 18.287 18.7598 18.1285 18.8843 17.8919C19.0088 17.6431 18.9408 17.4289 18.8503 17.2486C18.7598 17.0682 18.0264 15.2616 17.7231 14.5274C17.4288 13.8166 17.1254 13.9068 16.8991 13.8954C16.684 13.8841 16.4351 13.8841 16.1997 13.8841C15.9507 13.8841 15.5568 13.9745 15.2173 14.3471C14.8777 14.7198 13.9293 15.6006 13.9293 17.4064C13.9293 19.2121 15.2399 20.951 15.43 21.1998C15.6111 21.4487 18.0151 25.151 21.6957 26.7434C22.5762 27.1163 23.253 27.3416 23.7827 27.5116C24.6633 27.7942 25.4646 27.7482 26.0961 27.6581C26.7956 27.5566 28.2646 26.766 28.5679 25.9079C28.8735 25.0496 28.8735 24.3162 28.783 24.1577C28.6811 24.0216 28.4344 23.9313 28.0722 23.7397Z" fill="white"/>
<defs>
<linearGradient id="paint0_linear_4038_27450" x1="20.9181" y1="41.6559" x2="20.9181" y2="0.438856" gradientUnits="userSpaceOnUse">
<stop stop-color="#25CF43"/>
<stop offset="1" stop-color="#61FD7D"/>
</linearGradient>
</defs>
</svg>
