<svg width="42" height="39" viewBox="0 0 42 39" fill="none" xmlns="http://www.w3.org/2000/svg">
<path d="M28.8179 14.9375H39.4636C40.4687 14.9375 41.2835 15.7526 41.2835 16.7601V26.4575C41.2835 30.1549 38.2865 33.1503 34.5924 33.1503H34.5606C30.8642 33.1526 27.8672 30.1549 27.8672 26.4575V15.8907C27.8672 15.3654 28.2928 14.9375 28.8179 14.9375Z" fill="#5059C9"/>
<path d="M36.0153 13.017C38.3988 13.017 40.3274 11.0857 40.3274 8.70383C40.3274 6.32194 38.3988 4.39062 36.0153 4.39062C33.634 4.39062 31.7031 6.32194 31.7031 8.70383C31.7031 11.0857 33.634 13.017 36.0153 13.017Z" fill="#5059C9"/>
<path d="M22.5888 13.0205C26.0295 13.0205 28.8182 10.2288 28.8182 6.78953C28.8182 3.34803 26.0295 0.558594 22.5888 0.558594C19.1482 0.558594 16.3594 3.34803 16.3594 6.78953C16.3594 10.2288 19.1482 13.0205 22.5888 13.0205Z" fill="#7B83EB"/>
<path d="M30.8999 14.9375H13.3298C12.3361 14.9624 11.5506 15.7866 11.5733 16.7805V27.8432C11.4352 33.8069 16.1526 38.7564 22.1149 38.9035C28.0772 38.7564 32.7945 33.8069 32.6564 27.8432V16.7805C32.679 15.7866 31.8936 14.9624 30.8999 14.9375Z" fill="#7B83EB"/>
<path opacity="0.1" d="M23.0777 14.9375V30.4379C23.0731 31.1488 22.6431 31.7873 21.9866 32.059C21.7761 32.1473 21.552 32.1926 21.3234 32.1926H12.4207C12.2962 31.8756 12.1807 31.5609 12.0856 31.2349C11.7506 30.1345 11.5786 28.9911 11.5786 27.8409V16.7783C11.556 15.7866 12.3391 14.9624 13.3306 14.9375H23.0777Z" fill="black"/>
<path opacity="0.2" d="M22.1201 14.9375V31.3979C22.1201 31.6243 22.0749 31.8485 21.9866 32.059C21.715 32.7156 21.0766 33.1458 20.3659 33.1503H12.8711C12.7081 32.8356 12.5565 32.5186 12.4207 32.1926C12.2871 31.8665 12.1807 31.5609 12.0856 31.2349C11.7506 30.1345 11.5786 28.9911 11.5786 27.8409V16.7783C11.556 15.7866 12.3391 14.9624 13.3306 14.9375H22.1201Z" fill="black"/>
<path opacity="0.2" d="M22.1201 14.9375V29.4802C22.1134 30.4447 21.3324 31.2258 20.3659 31.2349H12.0856C11.7506 30.1345 11.5786 28.9911 11.5786 27.8409V16.7783C11.556 15.7866 12.3391 14.9624 13.3306 14.9375H22.1201Z" fill="black"/>
<path opacity="0.2" d="M21.1604 14.9375V29.4802C21.1536 30.4447 20.3726 31.2258 19.4084 31.2349H12.0856C11.7506 30.1345 11.5786 28.9911 11.5786 27.8409V16.7783C11.556 15.7866 12.3391 14.9624 13.3306 14.9375H21.1604Z" fill="black"/>
<path opacity="0.1" d="M23.0741 9.98128V13.0017C22.9111 13.0107 22.7594 13.0198 22.5964 13.0198C22.4335 13.0198 22.2795 13.0107 22.1165 13.0017C21.7929 12.979 21.4715 12.9292 21.1591 12.8477C19.2169 12.3881 17.6143 11.0273 16.8447 9.18655C16.7134 8.87636 16.6115 8.55486 16.5391 8.22656H21.3198C22.2886 8.23109 23.0718 9.01449 23.0741 9.98128Z" fill="black"/>
<path opacity="0.2" d="M22.1134 10.9383V12.9987C21.7897 12.9783 21.4705 12.9262 21.1559 12.847C19.216 12.3874 17.6111 11.0243 16.8438 9.18359H20.3591C21.328 9.18812 22.1111 9.97152 22.1134 10.9383Z" fill="black"/>
<path opacity="0.2" d="M22.1134 10.9383V12.9987C21.7897 12.9783 21.4705 12.9262 21.1559 12.847C19.216 12.3874 17.6111 11.0243 16.8438 9.18359H20.3591C21.328 9.18812 22.1111 9.97152 22.1134 10.9383Z" fill="black"/>
<path opacity="0.2" d="M21.1559 10.9383V12.847C19.216 12.3874 17.6111 11.0243 16.8438 9.18359H19.4016C20.3682 9.18812 21.1514 9.97152 21.1559 10.9383Z" fill="black"/>
<path d="M1.82687 9.18359H19.3992C20.368 9.18359 21.1557 9.97152 21.1557 10.9406V28.5149C21.1557 29.4862 20.368 30.2719 19.3992 30.2719H1.82687C0.858047 30.2719 0.0703125 29.4862 0.0703125 28.5149V10.9406C0.0703125 9.97152 0.858047 9.18359 1.82687 9.18359Z" fill="url(#paint0_linear_4038_27557)"/>
<path d="M15.2368 15.8761H11.7259V25.4422H9.4872V15.8761H5.99219V14.0195H15.2368V15.8761Z" fill="white"/>
<defs>
<linearGradient id="paint0_linear_4038_27557" x1="366.339" y1="-128.111" x2="1742.68" y2="2255.08" gradientUnits="userSpaceOnUse">
<stop stop-color="#5A62C3"/>
<stop offset="0.5" stop-color="#4D55BD"/>
<stop offset="1" stop-color="#3940AB"/>
</linearGradient>
</defs>
</svg>
