<svg width="39" height="40" viewBox="0 0 39 40" fill="none" xmlns="http://www.w3.org/2000/svg">
<mask id="mask0_4038_27496" style="mask-type:luminance" maskUnits="userSpaceOnUse" x="0" y="0" width="39" height="40">
<path d="M38.7155 0.691406H0.234375V39.182H38.7155V0.691406Z" fill="white"/>
</mask>
<g mask="url(#mask0_4038_27496)">
<path d="M13.9574 25.7787C13.6971 25.115 14.1045 24.3038 14.89 24.1315C15.7343 23.935 16.5198 24.1808 16.9001 24.9674C17.5407 26.0737 18.5593 27.0079 20.7142 27.0079C23.0729 27.0079 24.2952 25.9261 24.499 24.6971C24.6144 23.1237 23.1884 22.3123 21.3255 21.9437L18.7924 21.403C14.4826 20.4194 13.8125 18.3545 13.8125 16.8547C13.8125 13.9539 16.9001 12.0117 20.4223 12.0117C23.4804 12.0117 25.4882 13.0444 26.4502 15.1584C26.7399 15.7976 26.3914 16.5597 25.6353 16.7565C24.7321 17.0024 24.121 16.658 23.7135 15.9944C22.8104 14.6913 21.4703 14.4701 20.3635 14.4701C18.5299 14.4701 16.9001 15.4043 16.9001 16.8056C16.9001 17.4695 17.1898 18.5019 19.5779 19.0181L22.1403 19.5837C26.1876 20.4932 27.8763 22.4107 27.5571 24.8445C27.2651 27.4994 24.5578 29.3925 20.7142 29.3925C17.3641 29.3925 14.8312 27.8191 13.9574 25.7787Z" fill="#1B202B"/>
<path d="M20.0371 35.7848C28.4758 35.7848 35.3164 28.9425 35.3164 20.5018C35.3164 12.0612 28.4758 5.21875 20.0371 5.21875C11.5984 5.21875 4.75781 12.0612 4.75781 20.5018C4.75781 28.9425 11.5984 35.7848 20.0371 35.7848Z" stroke="#1B202B" stroke-width="1.32353"/>
</g>
</svg>
