<svg width="30" height="42" viewBox="0 0 30 42" fill="none" xmlns="http://www.w3.org/2000/svg">
<path d="M0.78125 7.25327C0.78125 3.45448 3.85966 0.375 7.65798 0.375H29.71V10.1634C29.71 12.0628 28.1708 13.6026 26.2716 13.6026H17.258C15.472 13.6309 14.03 15.0757 14.0051 16.863V38.2721C14.0051 40.1715 12.4659 41.7114 10.5668 41.7114H0.78125V13.6026V7.25327Z" fill="#001B38"/>
<path d="M8.46875 16.9951C8.46875 21.9262 12.4663 25.9235 17.3965 25.9235C22.3266 25.9235 26.3218 21.9262 26.3218 16.9951C26.3218 12.0638 22.3266 8.06641 17.3965 8.06641C12.4663 8.06641 8.46875 12.0638 8.46875 16.9951Z" fill="url(#paint0_linear_4038_27484)"/>
<path opacity="0.5" d="M8.46875 16.9951C8.46875 21.9262 12.4663 25.9235 17.3965 25.9235C22.3266 25.9235 26.3218 21.9262 26.3218 16.9951C26.3218 12.0638 22.3266 8.06641 17.3965 8.06641C12.4663 8.06641 8.46875 12.0638 8.46875 16.9951Z" fill="url(#paint1_linear_4038_27484)"/>
<defs>
<linearGradient id="paint0_linear_4038_27484" x1="11.1104" y1="10.3018" x2="24.5368" y2="23.8183" gradientUnits="userSpaceOnUse">
<stop stop-color="#FF0057" stop-opacity="0.16"/>
<stop offset="0.86135" stop-color="#FF0057"/>
</linearGradient>
<linearGradient id="paint1_linear_4038_27484" x1="11.1104" y1="10.3018" x2="24.5368" y2="23.8183" gradientUnits="userSpaceOnUse">
<stop stop-color="#FF0057" stop-opacity="0.16"/>
<stop offset="0.86135" stop-color="#FF0057"/>
</linearGradient>
</defs>
</svg>
