<svg width="41" height="42" viewBox="0 0 41 42" fill="none" xmlns="http://www.w3.org/2000/svg">
<path d="M6.317 10.2784L14.6923 15.3019C15.1563 15.5808 15.6996 15.6943 16.2361 15.6241C16.7725 15.5537 17.2706 15.3037 17.6463 14.9149C17.8976 14.6724 18.099 14.3813 18.2348 14.0593C18.3706 13.7376 18.4386 13.3914 18.4363 13.042V2.97357C18.4544 2.53251 18.3503 2.09509 18.1398 1.70747C17.9292 1.31984 17.6168 0.996295 17.2388 0.770786C16.8585 0.545503 16.4262 0.426409 15.9848 0.426409C15.5434 0.426409 15.111 0.545503 14.7308 0.770786C14.3527 0.996295 14.0404 1.31984 13.8299 1.70747C13.6194 2.09509 13.5175 2.53251 13.5333 2.97357V8.70301L8.77755 5.84973C8.49686 5.68331 8.1867 5.57463 7.863 5.53048C7.53931 5.48611 7.21108 5.50716 6.89644 5.59229C6.26037 5.76278 5.72617 6.19772 5.41379 6.77983C4.73471 8.00361 5.13088 9.53645 6.317 10.2718M26.4517 15.2955L34.827 10.2718C36.0109 9.53577 36.4092 7.99637 35.7279 6.77848C35.574 6.49116 35.3635 6.23802 35.1077 6.03425C34.8542 5.83047 34.5622 5.68036 34.2475 5.59296C33.9329 5.50557 33.6047 5.48271 33.281 5.52573C32.9573 5.56875 32.6472 5.67697 32.3665 5.84339L27.6673 8.65796V2.96452C27.6786 2.63508 27.6242 2.30656 27.5065 1.9984C27.3888 1.69048 27.21 1.4095 26.9814 1.17222C26.7528 0.934936 26.4766 0.746101 26.1733 0.617271C25.87 0.488214 25.544 0.421875 25.2158 0.421875C24.8853 0.421875 24.5593 0.488214 24.256 0.617271C23.9527 0.746101 23.6788 0.934936 23.4479 1.17222C23.2193 1.4095 23.0405 1.69048 22.9228 1.9984C22.8051 2.30656 22.7507 2.63508 22.7643 2.96452V12.8333C22.7122 13.362 22.8232 13.8933 23.0812 14.3577C23.3913 14.9394 23.9278 15.3689 24.5616 15.5453C24.8762 15.6334 25.2067 15.656 25.5304 15.6116C25.8541 15.5672 26.1642 15.457 26.4426 15.2878M18.9954 21.0159C19.0044 20.8549 19.0656 20.6939 19.1719 20.578L20.1498 19.5603C20.2653 19.4525 20.4147 19.3882 20.5732 19.3787H20.6094C20.7678 19.388 20.9172 19.4523 21.0327 19.5603L22.0105 20.578C22.1169 20.7003 22.178 20.8549 22.1871 21.0166V21.0551C22.178 21.2172 22.1169 21.3721 22.0105 21.495L21.0327 22.5127C20.9172 22.6216 20.7678 22.6864 20.6094 22.6957H20.5732C20.4147 22.6866 20.2653 22.6214 20.1498 22.5127L19.1719 21.495C19.0656 21.3721 19.0044 21.2172 18.9954 21.0551V21.0159ZM16.0324 20.5973V21.4758C16.0414 21.6965 16.1274 21.9073 16.2701 22.0746L19.593 25.525C19.7492 25.6733 19.9552 25.7613 20.1702 25.7736H21.0145C21.2295 25.7613 21.4333 25.6733 21.5917 25.525L24.9125 22.0746C25.0573 21.9073 25.1411 21.6965 25.1524 21.4758V20.5973C25.1411 20.3765 25.0573 20.1657 24.9125 19.9984L21.5917 16.5481C21.4333 16.3998 21.2295 16.3117 21.0145 16.2995H20.1702C19.9552 16.3117 19.7492 16.3998 19.593 16.5481L16.2701 20.0047C16.1274 20.1723 16.0437 20.3831 16.0324 20.6036M1.98219 18.2143L6.72443 21.0592L1.98219 23.9014C1.41177 24.2564 1.00208 24.8172 0.834575 25.4677C0.667068 26.1179 0.7553 26.8081 1.08126 27.3945C1.23518 27.6823 1.44574 27.9358 1.70152 28.1401C1.95505 28.3441 2.24927 28.4946 2.56391 28.5823C3.19772 28.7586 3.87685 28.6678 4.44502 28.3298L12.8203 23.3061C13.5922 22.8155 14.0427 21.9678 14.0427 21.0571C14.0427 20.6099 13.9317 20.1698 13.7189 19.777C13.5039 19.3841 13.196 19.0511 12.8203 18.8081L4.44502 13.7844C4.16433 13.618 3.8519 13.5094 3.53047 13.4652C3.20678 13.4208 2.87855 13.4419 2.56391 13.527C1.92784 13.6975 1.39137 14.1322 1.08126 14.7146C0.402178 15.9383 0.798347 17.4698 1.98447 18.2066M27.0923 21.0675C27.0855 21.5154 27.1942 21.9576 27.4092 22.3504C27.6265 22.743 27.9389 23.0727 28.3215 23.3068L36.6922 28.3305C37.2581 28.6678 37.9372 28.7593 38.5733 28.5829C39.2071 28.4063 39.7435 27.9775 40.0537 27.3958C40.3819 26.8096 40.4724 26.1191 40.3049 25.4681C40.1351 24.8174 39.7231 24.2564 39.1527 23.9025L34.415 21.0596L39.1573 18.2149C40.3434 17.4789 40.7395 15.9415 40.0604 14.7229C39.9065 14.4349 39.696 14.1811 39.4402 13.9769C39.1867 13.7729 38.8924 13.6226 38.5778 13.5354C37.944 13.3588 37.2626 13.4489 36.699 13.7928L28.3282 18.8165C27.9434 19.0522 27.6265 19.3848 27.4115 19.7813C27.1942 20.1777 27.0878 20.624 27.0968 21.0752M16.3742 26.5149C15.7947 26.4032 15.1971 26.5097 14.6923 26.8137L6.317 31.8372C5.13314 32.5733 4.73473 34.1106 5.41607 35.3292C5.72618 35.9109 6.26037 36.3404 6.89644 36.5163C7.21108 36.6035 7.53931 36.6261 7.863 36.5826C8.1867 36.5394 8.49686 36.4309 8.77755 36.2638L13.5333 33.4106V39.0977C13.522 39.4278 13.5741 39.7572 13.6918 40.066C13.8095 40.3751 13.9883 40.657 14.2169 40.8954C14.4456 41.1336 14.7194 41.3231 15.025 41.4526C15.3284 41.5821 15.6543 41.6487 15.9848 41.6487C16.3153 41.6487 16.6435 41.5821 16.9468 41.4526C17.2501 41.3231 17.5264 41.1336 17.755 40.8954C17.9836 40.657 18.1624 40.3751 18.2801 40.066C18.3956 39.7572 18.4499 39.4278 18.4363 39.0977V29.0215C18.4454 28.426 18.2439 27.8469 17.8659 27.3866C17.4878 26.9265 16.9582 26.6149 16.3742 26.5076M34.827 31.8379L26.4517 26.8142C26.171 26.6473 25.8609 26.5389 25.5372 26.4954C25.2135 26.4519 24.8853 26.4745 24.5707 26.5617C24.256 26.6491 23.9617 26.7992 23.7082 27.0032C23.4524 27.2072 23.2419 27.4608 23.088 27.7488C22.8322 28.2139 22.7213 28.7459 22.7711 29.2753V39.097C22.7575 39.4271 22.8118 39.7565 22.9295 40.0656C23.045 40.3744 23.2238 40.6565 23.4525 40.8947C23.6833 41.1329 23.9572 41.3224 24.2606 41.4519C24.5639 41.5814 24.8921 41.6482 25.2226 41.6482C25.553 41.6482 25.879 41.5814 26.1823 41.4519C26.4879 41.3224 26.7618 41.1329 26.9904 40.8947C27.2191 40.6565 27.3979 40.3744 27.5156 40.0656C27.6333 39.7565 27.6876 39.4271 27.674 39.097V33.4524L32.3665 36.267C32.6449 36.4334 32.9573 36.5421 33.281 36.5865C33.6024 36.6306 33.9329 36.6096 34.2475 36.5247C34.8813 36.354 35.4178 35.9192 35.7279 35.3369C36.4092 34.1133 36.0109 32.5805 34.827 31.8449" fill="#29B5E8"/>
</svg>
