<svg width="42" height="41" viewBox="0 0 42 41" fill="none" xmlns="http://www.w3.org/2000/svg">
<path d="M1.88055 31.1554C1.455 31.8482 0.975128 32.6588 0.594843 33.2995C0.51109 33.4444 0.458995 33.6029 0.434095 33.7659C0.411459 33.9312 0.420552 34.0988 0.459033 34.2618C0.497514 34.4225 0.569957 34.5743 0.665028 34.7101C0.762363 34.846 0.884589 34.9614 1.02493 35.0497L9.55418 40.3093C9.70132 40.4022 9.86654 40.4633 10.0386 40.4905C10.2083 40.5176 10.3849 40.5108 10.5547 40.4701C10.7244 40.4271 10.8829 40.3546 11.0232 40.2505C11.1636 40.1486 11.2813 40.0173 11.3696 39.8678C11.7137 39.295 12.1483 38.5524 12.6168 37.7622C15.9986 32.215 19.4235 32.8942 25.5442 35.8059L34.0056 39.818C34.164 39.895 34.3361 39.938 34.5126 39.9448C34.6869 39.9539 34.8635 39.9267 35.0264 39.8656C35.1917 39.8044 35.3433 39.7094 35.4701 39.5894C35.5991 39.4694 35.6987 39.3244 35.7712 39.1637L39.832 30.0029C39.9022 29.849 39.9407 29.6837 39.9452 29.5139C39.952 29.3463 39.9249 29.1788 39.866 29.0203C39.8072 28.8618 39.7211 28.7169 39.6079 28.5901C39.4947 28.4656 39.3612 28.3637 39.2073 28.289C37.4235 27.449 33.8742 25.7961 30.6916 24.2384C19.1178 18.655 9.35269 19.0218 1.88055 31.1554Z" fill="url(#paint0_linear_4038_27582)"/>
<path d="M40.1334 10.3327C40.5635 9.63987 41.0434 8.83157 41.4192 8.18855C41.5029 8.04364 41.5595 7.88063 41.5844 7.71082C41.6093 7.54327 41.598 7.37119 41.5572 7.20817C41.5142 7.04289 41.4395 6.88892 41.3376 6.75307C41.2358 6.61496 41.109 6.49948 40.9641 6.41344L32.4462 1.15383C32.2991 1.061 32.1339 0.999861 31.9618 0.972691C31.7898 0.945521 31.6155 0.954584 31.4457 0.993074C31.276 1.03609 31.1175 1.11081 30.9772 1.2127C30.8368 1.31685 30.7191 1.4459 30.6308 1.59534C30.2935 2.16817 29.8499 2.91081 29.3814 3.701C25.9882 9.27307 22.5928 8.59383 16.4675 5.68439L8.01298 1.67005C7.85679 1.59307 7.68474 1.55005 7.5127 1.53873C7.33841 1.52741 7.16187 1.55459 6.99889 1.61119C6.83365 1.67006 6.68422 1.76062 6.55519 1.87835C6.4239 1.99383 6.32207 2.13646 6.24737 2.29495L2.18646 11.4783C2.04612 11.7908 2.03254 12.144 2.14799 12.4655C2.20684 12.624 2.2951 12.7712 2.40828 12.898C2.52146 13.0225 2.65728 13.1244 2.80894 13.1991C4.59945 14.0414 8.15102 15.6919 11.3246 17.2497C22.8689 22.8331 32.6658 22.4663 40.1334 10.3327Z" fill="url(#paint1_linear_4038_27582)"/>
<defs>
<linearGradient id="paint0_linear_4038_27582" x1="39.5582" y1="43.0331" x2="13.7862" y2="28.2265" gradientUnits="userSpaceOnUse">
<stop stop-color="#0052CC"/>
<stop offset="0.92" stop-color="#2380FB"/>
<stop offset="1" stop-color="#2684FF"/>
</linearGradient>
<linearGradient id="paint1_linear_4038_27582" x1="2.45357" y1="-1.55184" x2="28.2323" y2="13.2571" gradientUnits="userSpaceOnUse">
<stop stop-color="#0052CC"/>
<stop offset="0.92" stop-color="#2380FB"/>
<stop offset="1" stop-color="#2684FF"/>
</linearGradient>
</defs>
</svg>
