<svg width="38" height="42" viewBox="0 0 38 42" fill="none" xmlns="http://www.w3.org/2000/svg">
<path d="M36.4486 20.0055C35.5296 18.438 34.2213 17.1366 32.6481 16.2286C31.4461 15.5304 30.2034 15.0871 28.8022 14.8953V9.87295C29.4813 9.59107 30.063 9.11151 30.4659 8.49657C30.8711 7.88163 31.0816 7.15915 31.0726 6.42307C31.0748 5.92586 30.9798 5.43318 30.7896 4.9731C30.6017 4.51303 30.3233 4.09483 29.9748 3.7423C29.6239 3.39 29.2073 3.11016 28.7478 2.91952C28.2883 2.72865 27.7972 2.63039 27.2992 2.63039C26.2919 2.63039 25.3276 3.02955 24.6145 3.74049C23.9015 4.45143 23.4986 5.41598 23.4941 6.42307C23.4941 7.96405 24.3112 9.27861 25.7169 9.87295V14.867C24.5534 15.0355 23.4239 15.39 22.3713 15.9173L8.9323 5.73748C9.02511 5.38201 9.10659 5.01408 9.10659 4.62736C9.10659 2.30638 7.22785 0.425781 4.90766 0.425781C2.58747 0.425781 0.710938 2.30638 0.710938 4.62736C0.710938 6.94812 2.58968 8.82873 4.90987 8.82873C5.70213 8.82873 6.43554 8.59619 7.06708 8.21559L7.94764 8.88239L20.0058 17.5776C19.3675 18.1627 18.7721 18.8293 18.2968 19.5778C17.3348 21.1031 16.7485 22.7793 16.7485 24.6096V24.9868C16.753 26.2283 16.9749 27.4588 17.4073 28.6224C17.7717 29.6161 18.3081 30.5218 18.9714 31.3394L14.9648 35.3553C13.7787 34.9151 12.45 35.2077 11.5536 36.1038C10.9447 36.7108 10.6006 37.5379 10.6051 38.3997C10.6074 39.2612 10.9446 40.0822 11.5558 40.6953C12.1692 41.3084 12.9909 41.6483 13.8511 41.6483C14.7135 41.6483 15.5398 41.3084 16.1464 40.6953C16.7531 40.0822 17.0993 39.2612 17.0971 38.3997C17.0971 38.0689 17.0451 37.7401 16.9455 37.4247L21.0833 33.2861C21.6492 33.6791 22.2626 34.0095 22.9236 34.2925C24.2795 34.8877 25.744 35.1961 27.2267 35.1982H27.5097C29.2458 35.1982 30.8824 34.7893 32.4217 33.9561C34.0017 33.1084 35.3281 31.8572 36.2698 30.33C37.2341 28.789 37.7615 27.0814 37.7615 25.204V25.1096C37.7615 23.2636 37.336 21.5623 36.4418 20.0023L36.4486 20.0055ZM31.3963 28.6914C30.2735 29.9399 28.981 30.7104 27.5233 30.7104H27.2448C26.4118 30.7104 25.5947 30.481 24.8001 30.0594C23.9264 29.6059 23.1885 28.9328 22.6565 28.1066C22.0771 27.289 21.7624 26.3958 21.7624 25.4492V25.1662C21.7624 24.2354 21.9412 23.3517 22.3917 22.5182C22.8716 21.5748 23.5235 20.8987 24.3882 20.3358C25.2528 19.7727 26.1425 19.5024 27.1543 19.5024H27.2494C28.1616 19.5024 29.0308 19.6817 29.848 20.0999C30.6765 20.5355 31.3804 21.1751 31.892 21.9585C32.399 22.744 32.7137 23.6385 32.8065 24.5687L32.8291 25.1566C32.8291 26.4366 32.3402 27.6223 31.3623 28.6978L31.3963 28.6914Z" fill="#F8761F"/>
</svg>
