<svg width="42" height="42" viewBox="0 0 42 42" fill="none" xmlns="http://www.w3.org/2000/svg">
<path d="M14.9263 27.3261C14.0933 26.7531 13.4957 25.8986 13.2422 24.9198L15.1232 24.1454C15.2568 24.7312 15.5691 25.2603 16.0173 25.6586C16.4497 26.0179 16.9975 26.2078 17.5588 26.1922C18.1383 26.2047 18.702 26.0052 19.1457 25.6307C19.3562 25.4591 19.5259 25.2411 19.6414 24.9936C19.7568 24.7459 19.8134 24.4753 19.8089 24.2023C19.8134 23.9229 19.7546 23.646 19.6323 23.3942C19.5101 23.1426 19.3312 22.9232 19.1094 22.7543C18.6091 22.3688 17.9889 22.1702 17.3574 22.1928H16.2777V20.3299H17.2533C17.8011 20.3475 18.3375 20.1752 18.7744 19.842C18.9759 19.6844 19.1365 19.4808 19.2452 19.2481C19.3516 19.0155 19.4037 18.7606 19.3923 18.5045C19.3991 18.274 19.3539 18.0449 19.2588 17.8355C19.1615 17.6258 19.0189 17.4415 18.8378 17.2973C18.4394 16.9855 17.9437 16.8252 17.4389 16.8449C16.959 16.8189 16.4882 16.9771 16.1215 17.2873C15.7955 17.5839 15.551 17.9577 15.4107 18.3743L13.5477 17.5982C13.8171 16.8646 14.2902 16.2227 14.9105 15.7466C15.6393 15.1914 16.538 14.9077 17.4547 14.9446C18.1632 14.9328 18.8672 15.0836 19.5078 15.3854C20.0873 15.6569 20.5807 16.081 20.9361 16.6121C21.2802 17.1336 21.4613 17.7463 21.4522 18.3709C21.4726 18.9696 21.3051 19.5596 20.9723 20.0582C20.6713 20.502 20.2661 20.866 19.793 21.1192V21.2346C20.3951 21.4828 20.918 21.8906 21.3074 22.4143C21.7058 22.9647 21.914 23.6321 21.8959 24.313C21.9072 25.0117 21.7125 25.6982 21.3345 26.2864C20.952 26.8719 20.4178 27.3431 19.7885 27.6499C19.0981 27.9893 18.3375 28.1602 17.5679 28.1494C16.624 28.1525 15.7027 27.8652 14.9263 27.3261Z" fill="#4285F4"/>
<path d="M24.4228 19.4799L23.3906 17.9131L27.0961 15.2383H28.5154V27.851H26.4895V17.9863L24.4228 19.4799Z" fill="#4285F4"/>
<path d="M32.1742 32.1914H10.4844V41.9535H32.1742V32.1914Z" fill="#34A853"/>
<path d="M32.1692 0.734375H3.97157C3.10914 0.734375 2.28294 1.07739 1.67177 1.68758C1.06286 2.29777 0.71875 3.12554 0.71875 3.98841V32.1914H10.4794V10.4967H32.1692V0.734375Z" fill="#4285F4"/>
<path d="M0.71875 32.1914V38.6995C0.71875 39.5626 1.06286 40.3901 1.67177 41.0005C2.28294 41.6107 3.10914 41.9535 3.97157 41.9535H10.4794V32.1914H0.71875Z" fill="#188038"/>
<path d="M41.9303 10.4961H32.1719V32.191H41.9303V10.4961Z" fill="#FBBC04"/>
<path d="M41.9303 10.4967V3.98841C41.9303 3.12554 41.5884 2.29777 40.9772 1.68758C40.3683 1.07739 39.5399 0.734375 38.6774 0.734375H32.1719V10.4967H41.9303Z" fill="#1967D2"/>
<path d="M32.1719 41.9535L41.9303 32.1914H32.1719V41.9535Z" fill="#EA4335"/>
</svg>
