<svg width="40" height="42" viewBox="0 0 40 42" fill="none" xmlns="http://www.w3.org/2000/svg">
<mask id="mask0_4038_27683" style="mask-type:luminance" maskUnits="userSpaceOnUse" x="0" y="0" width="40" height="42">
<path d="M39.7044 0.734375H0.984375V41.9535H39.7044V0.734375Z" fill="white"/>
</mask>
<g mask="url(#mask0_4038_27683)">
<path d="M14.8195 2.02944C8.51537 2.4963 3.1529 2.92536 2.90164 2.97563C2.1954 3.10174 1.55251 3.58129 1.24919 4.2123L0.984375 4.7677L1.00928 18.0019L1.04776 31.2363L1.45066 32.0564C1.67929 32.5103 3.21626 34.63 4.89359 36.8122C8.21202 41.1141 8.45199 41.3541 9.71282 41.4802C10.0795 41.5178 12.8275 41.3917 15.8041 41.2153C18.7944 41.0263 23.5864 40.7358 26.4634 40.5723C38.7457 39.8263 38.1165 39.8894 38.8227 39.2838C39.7055 38.5522 39.6421 39.7506 39.6783 23.6657C39.7055 10.0275 39.6919 9.13253 39.4905 8.71593C39.2505 8.24928 38.8227 7.92144 33.2225 3.98498C29.4763 1.36083 29.2115 1.22204 27.5341 1.19646C26.8392 1.17178 21.1146 1.54989 14.8195 2.02944ZM28.9964 3.75766C29.5261 3.99698 33.3991 6.69676 33.965 7.21457C34.1166 7.36604 34.1687 7.49215 34.0917 7.568C33.9152 7.71947 9.95049 9.14521 9.25782 9.044C8.94318 8.99374 8.47687 8.80468 8.21203 8.6274C7.11418 7.88317 4.38882 5.65004 4.38882 5.48634C4.38882 5.05729 4.30054 5.05728 14.9847 4.28815C17.0288 4.14936 20.3834 3.89713 22.4274 3.73276C26.8528 3.37932 28.177 3.39223 28.9964 3.75766ZM36.6157 10.6588C36.79 10.8349 36.9416 11.1757 36.9937 11.5036C37.0299 11.8067 37.0548 17.4585 37.0299 24.0438C36.9937 35.3473 36.9801 36.0542 36.7651 36.3823C36.6406 36.584 36.3871 36.7986 36.1969 36.8616C35.6695 37.0762 10.5571 38.502 10.041 38.3505C9.80107 38.2873 9.47286 38.0856 9.2963 37.9092L8.99297 37.5814L8.9545 25.3946C8.9296 16.8411 8.95449 13.0563 9.05635 12.7156C9.13332 12.4633 9.3212 12.1602 9.48644 12.0596C9.7128 11.9082 11.2023 11.782 16.3225 11.4798C19.9171 11.2778 25.4788 10.9373 28.6705 10.748C36.2626 10.2805 36.2377 10.2805 36.6157 10.6588Z" fill="black"/>
<path d="M29.8698 14.8334C28.5071 14.9219 27.2961 15.048 27.158 15.1237C26.7415 15.3383 26.4903 15.6917 26.4382 16.0954C26.402 16.512 26.5265 16.5623 27.8891 16.7265L28.4822 16.8023V22.1892C28.4822 25.3934 28.4324 27.5131 28.369 27.4501C28.3057 27.3743 26.5151 24.6496 24.3828 21.3947C22.2505 18.1275 20.4849 15.4397 20.46 15.4148C20.4351 15.3895 19.0475 15.4651 17.3815 15.5792C15.3398 15.718 14.217 15.8441 13.9884 15.9702C13.624 16.1593 13.2188 16.8279 13.2188 17.2698C13.2188 17.5348 13.6986 17.6735 14.7082 17.6735H15.2379V33.1658L14.38 33.4307C13.7122 33.6324 13.4836 33.7585 13.3704 34.0105C13.169 34.4398 13.1825 34.8308 13.384 34.8308C13.461 34.8308 14.8848 34.7423 16.5236 34.6418C19.7651 34.4525 20.1318 34.364 20.4713 33.6954C20.5732 33.4936 20.6615 33.279 20.6615 33.216C20.6615 33.1658 20.2201 33.0141 19.6904 32.888C19.1471 32.7621 18.6039 32.636 18.4907 32.6104C18.2757 32.5474 18.2643 32.1564 18.2643 26.7313V20.9151L22.0989 26.933C26.1213 33.2407 26.626 33.9603 27.244 34.2754C28.0136 34.6791 29.9694 34.4015 30.9518 33.7585L31.2551 33.5695L31.2823 24.9657L31.3185 16.3492L31.9862 16.2231C32.7808 16.0714 33.1475 15.7062 33.1475 15.075C33.1475 14.6713 33.1226 14.6459 32.7446 14.6586C32.5182 14.669 31.2189 14.7449 29.8698 14.8334Z" fill="black"/>
</g>
</svg>
