<svg width="45" height="45" viewBox="0 0 45 45" fill="none" xmlns="http://www.w3.org/2000/svg">
<path d="M22.5 22.5008L6.24372 13.1633C4.66872 15.9195 3.75 19.107 3.75 22.5008C3.75 32.8508 12.15 41.2508 22.5 41.2508C32.85 41.2508 41.25 32.8508 41.25 22.5008C41.25 18.657 40.0875 15.0758 38.1 12.1133" stroke="#292D32" stroke-width="2.5" stroke-miterlimit="10" stroke-linecap="round" stroke-linejoin="round"/>
<path d="M11.25 7.5C14.3812 5.15625 18.2812 3.75 22.5 3.75C26.025 3.75 29.3063 4.72503 32.1188 6.41253" stroke="#292D32" stroke-width="2.5" stroke-miterlimit="10" stroke-linecap="round" stroke-linejoin="round"/>
<path d="M12.8062 16.8C11.8125 18.4687 11.25 20.4187 11.25 22.5C11.25 28.7062 16.2938 33.75 22.5 33.75C28.7062 33.75 33.75 28.7062 33.75 22.5C33.75 16.2938 28.7062 11.25 22.5 11.25C20.7937 11.25 19.1625 11.625 17.7188 12.3188" stroke="#292D32" stroke-width="2.5" stroke-miterlimit="10" stroke-linecap="round" stroke-linejoin="round"/>
</svg>
