<svg width="42" height="42" viewBox="0 0 42 42" fill="none" xmlns="http://www.w3.org/2000/svg">
<path fill-rule="evenodd" clip-rule="evenodd" d="M12.1406 26.6975C12.1406 24.2962 13.956 22.3633 16.2106 22.3633C18.4651 22.3633 20.2805 24.2962 20.2805 26.6975V37.3662C20.2805 39.7674 18.4651 41.7005 16.2106 41.7005C13.956 41.7005 12.1406 39.7674 12.1406 37.3662V26.6975Z" fill="#E01E5A" stroke="#E01E5A" stroke-width="0.224755" stroke-linecap="round" stroke-linejoin="round"/>
<path fill-rule="evenodd" clip-rule="evenodd" d="M26.6528 30.5052C24.2534 30.5052 22.3203 28.6895 22.3203 26.4342C22.3203 24.1789 24.2534 22.3633 26.6528 22.3633H37.3189C39.7205 22.3633 41.6514 24.1789 41.6514 26.4342C41.6514 28.6895 39.7205 30.5052 37.3189 30.5052H26.6528Z" fill="#ECB22D" stroke="#ECB22D" stroke-width="0.224755" stroke-linecap="round" stroke-linejoin="round"/>
<path fill-rule="evenodd" clip-rule="evenodd" d="M22.3203 5.32255C22.3203 2.92141 24.1357 0.988281 26.3902 0.988281C28.6447 0.988281 30.4602 2.92141 30.4602 5.32255V15.9915C30.4602 18.3926 28.6447 20.3257 26.3902 20.3257C24.1357 20.3257 22.3203 18.3926 22.3203 15.9915V5.32255Z" fill="#2FB67C" stroke="#2FB67C" stroke-width="0.224755" stroke-linecap="round" stroke-linejoin="round"/>
<path fill-rule="evenodd" clip-rule="evenodd" d="M5.28787 20.3255C2.88619 20.3255 0.953125 18.5099 0.953125 16.2545C0.953125 13.9992 2.88619 12.1836 5.28787 12.1836H15.954C18.3534 12.1836 20.2865 13.9992 20.2865 16.2545C20.2865 18.5099 18.3534 20.3255 15.954 20.3255H5.28787Z" fill="#36C5F1" stroke="#36C5F1" stroke-width="0.224755" stroke-linecap="round" stroke-linejoin="round"/>
<path fill-rule="evenodd" clip-rule="evenodd" d="M22.3203 37.6259C22.3181 38.1607 22.4222 38.6907 22.6282 39.185C22.8319 39.6795 23.1307 40.1287 23.5087 40.507C23.8867 40.8853 24.3372 41.1851 24.8306 41.3893C25.3264 41.5933 25.856 41.6979 26.3902 41.6968C28.6448 41.6968 30.4603 39.8812 30.4603 37.6259C30.4603 37.0909 30.356 36.561 30.1523 36.0665C29.9486 35.5721 29.6476 35.1229 29.2696 34.7445C28.8916 34.3664 28.4433 34.0666 27.9476 33.8624C27.4541 33.6582 26.9244 33.5536 26.3902 33.5547H22.3203V37.6259Z" fill="#ECB22D" stroke="#ECB22D" stroke-width="0.224755" stroke-linecap="round"/>
<path fill-rule="evenodd" clip-rule="evenodd" d="M37.5855 20.3218H33.5156V16.2506C33.5156 13.9953 35.331 12.1797 37.5855 12.1797C39.8401 12.1797 41.6555 13.9953 41.6555 16.2506C41.6555 18.506 39.8401 20.3218 37.5855 20.3218Z" fill="#2FB67C" stroke="#2FB67C" stroke-width="0.224755" stroke-linecap="round"/>
<path fill-rule="evenodd" clip-rule="evenodd" d="M5.02308 22.3594H9.09297V26.4303C9.09297 28.6856 7.27763 30.5015 5.02308 30.5015C4.48888 30.5026 3.95915 30.398 3.46569 30.1938C2.96996 29.9896 2.5218 29.6898 2.14378 29.3117C1.76576 28.9333 1.46467 28.4841 1.26094 27.9896C1.05722 27.4951 0.953125 26.9653 0.953125 26.4303C0.953125 24.175 2.76854 22.3594 5.02308 22.3594Z" fill="#E01E5A" stroke="#E01E5A" stroke-width="0.224755" stroke-linecap="round"/>
<path fill-rule="evenodd" clip-rule="evenodd" d="M20.2805 5.05946V9.1304H16.2106C15.6741 9.13154 15.1444 9.02716 14.6509 8.82293C14.1575 8.61871 13.7071 8.31893 13.329 7.94059C12.951 7.56225 12.6522 7.11305 12.4485 6.61878C12.2425 6.12429 12.1384 5.59425 12.1407 5.05946C12.1407 2.80414 13.9561 0.98829 16.2106 0.98829C16.7448 0.987158 17.2745 1.09176 17.7679 1.29599C18.2637 1.50022 18.7119 1.79999 19.0899 2.17833C19.4679 2.55644 19.769 3.00565 19.9727 3.50014C20.1764 3.99463 20.2805 4.52444 20.2805 5.05946Z" fill="#36C5F1" stroke="#36C5F1" stroke-width="0.224755" stroke-linecap="round"/>
</svg>
