<svg width="50" height="50" viewBox="0 0 50 50" fill="none" xmlns="http://www.w3.org/2000/svg">
<path d="M25 16.668V13.543" stroke="#292D32" stroke-width="2.5" stroke-linecap="round" stroke-linejoin="round"/>
<path d="M25 8.33333V6.25" stroke="#292D32" stroke-width="2.5" stroke-linecap="round" stroke-linejoin="round"/>
<path d="M25 43.7513V32.293" stroke="#292D32" stroke-width="2.5" stroke-linecap="round" stroke-linejoin="round"/>
<path d="M20.8359 6.25H29.1693" stroke="#292D32" stroke-width="2.5" stroke-linecap="round" stroke-linejoin="round"/>
<path d="M20.8359 43.75H29.1693" stroke="#292D32" stroke-width="2.5" stroke-linecap="round" stroke-linejoin="round"/>
<path d="M18.6901 21.3542L8.77344 15.625" stroke="#292D32" stroke-width="2.5" stroke-linecap="round" stroke-linejoin="round"/>
<path d="M41.2292 34.3737L31.3125 28.6445" stroke="#292D32" stroke-width="2.5" stroke-linecap="round" stroke-linejoin="round"/>
<path d="M6.6875 19.2278L10.8542 12.0195" stroke="#292D32" stroke-width="2.5" stroke-linecap="round" stroke-linejoin="round"/>
<path d="M39.1484 37.9778L43.3151 30.7695" stroke="#292D32" stroke-width="2.5" stroke-linecap="round" stroke-linejoin="round"/>
<path d="M18.6901 28.6445C18.0651 27.5612 17.7109 26.332 17.7109 24.9987C17.7109 23.6654 18.0651 22.4362 18.6901 21.3529C19.9609 19.1654 22.3151 17.707 25.0026 17.707C27.6901 17.707 30.0443 19.1654 31.3151 21.3529C31.9401 22.4362 32.2943 23.6654 32.2943 24.9987C32.2943 26.332 31.9401 27.5612 31.3151 28.6445C30.0443 30.832 27.6901 32.2904 25.0026 32.2904" stroke="#292D32" stroke-width="2.5" stroke-linecap="round" stroke-linejoin="round"/>
<path d="M41.2292 15.625L35.5208 18.9167L31.3125 21.3542" stroke="#292D32" stroke-width="2.5" stroke-linecap="round" stroke-linejoin="round"/>
<path d="M18.6901 28.6445L8.77344 34.3737" stroke="#292D32" stroke-width="2.5" stroke-linecap="round" stroke-linejoin="round"/>
<path d="M43.3151 19.2278L39.1484 12.0195" stroke="#292D32" stroke-width="2.5" stroke-linecap="round" stroke-linejoin="round"/>
<path d="M10.8542 37.9778L6.6875 30.7695" stroke="#292D32" stroke-width="2.5" stroke-linecap="round" stroke-linejoin="round"/>
</svg>
