<svg width="32" height="36" viewBox="0 0 32 36" fill="none" xmlns="http://www.w3.org/2000/svg">
<path d="M15.9069 15.5169C19.0216 15.5169 21.9349 15.2343 24.6421 14.669C27.3494 14.1036 29.4862 13.2688 31.0504 12.1644V15.5169C31.0504 16.4241 30.3713 17.2655 29.0176 18.0412C27.664 18.8169 25.8237 19.4316 23.499 19.8851C21.172 20.3386 18.6413 20.5655 15.9069 20.5655C13.1725 20.5655 10.644 20.3386 8.31699 19.8851C5.99001 19.4316 4.14978 18.8169 2.79615 18.0412C1.44252 17.2655 0.765625 16.4241 0.765625 15.5169V12.1644C2.32977 13.2688 4.46433 14.1036 7.17386 14.669C9.88112 15.2343 12.7922 15.5169 15.9069 15.5169ZM15.9069 30.6627C19.0216 30.6627 21.9349 30.3799 24.6421 29.8148C27.3494 29.2494 29.4862 28.4144 31.0504 27.3102V30.6627C31.0504 31.57 30.3713 32.4113 29.0176 33.187C27.664 33.9627 25.8237 34.5774 23.499 35.0309C21.172 35.4844 18.6413 35.7113 15.9069 35.7113C13.1725 35.7113 10.644 35.4844 8.31699 35.0309C5.99001 34.5774 4.14978 33.9627 2.79615 33.187C1.44252 32.4113 0.765625 31.57 0.765625 30.6627V27.3102C2.32977 28.4144 4.46433 29.2494 7.17386 29.8148C9.88112 30.3799 12.7922 30.6627 15.9069 30.6627ZM15.9069 23.0898C19.0216 23.0898 21.9349 22.8072 24.6421 22.2419C27.3494 21.6765 29.4862 20.8415 31.0504 19.7373V23.0898C31.0504 23.997 30.3713 24.8384 29.0176 25.6141C27.664 26.3898 25.8237 27.0045 23.499 27.458C21.172 27.9115 18.6413 28.1384 15.9069 28.1384C13.1725 28.1384 10.644 27.9115 8.31699 27.458C5.99001 27.0045 4.14978 26.3898 2.79615 25.6141C1.44252 24.8384 0.765625 23.997 0.765625 23.0898V19.7373C2.32977 20.8415 4.46433 21.6765 7.17386 22.2419C9.88112 22.8072 12.7922 23.0898 15.9069 23.0898ZM15.9069 0.371094C18.6413 0.371094 21.172 0.597959 23.499 1.05147C25.8237 1.5052 27.664 2.11969 29.0176 2.89539C30.3713 3.67109 31.0504 4.51245 31.0504 5.41969V7.94399C31.0504 8.85124 30.3713 9.69259 29.0176 10.4683C27.664 11.244 25.8237 11.8587 23.499 12.3122C21.172 12.7657 18.6413 12.9926 15.9069 12.9926C13.1725 12.9926 10.644 12.7657 8.31699 12.3122C5.99001 11.8587 4.14978 11.244 2.79615 10.4683C1.44252 9.69259 0.765625 8.85124 0.765625 7.94399V5.41969C0.765625 4.51245 1.44252 3.67109 2.79615 2.89539C4.14978 2.11969 5.99001 1.5052 8.31699 1.05147C10.644 0.597959 13.1725 0.371094 15.9069 0.371094Z" fill="#6056FF"/>
</svg>
